<?xml version="1.0" encoding="UTF-8"?>
<svg xmlns="http://www.w3.org/2000/svg" xmlns:xlink="http://www.w3.org/1999/xlink" viewBox="0 0 1366 630">
  <defs>
    <style>
      .cls-1 {
        fill: #fa0096;
      }

      .cls-2 {
        letter-spacing: -.03em;
      }

      .cls-3 {
        letter-spacing: 0em;
      }

      .cls-4, .cls-5, .cls-6, .cls-7, .cls-8, .cls-9, .cls-10, .cls-11, .cls-12, .cls-13 {
        stroke-miterlimit: 10;
      }

      .cls-4, .cls-5, .cls-6, .cls-9, .cls-13 {
        stroke: #4678be;
      }

      .cls-4, .cls-5, .cls-7, .cls-10, .cls-11, .cls-12, .cls-14 {
        fill: none;
      }

      .cls-4, .cls-11, .cls-14 {
        stroke-width: .75px;
      }

      .cls-15 {
        fill: url(#linear-gradient-2);
      }

      .cls-16 {
        fill: #ff3278;
      }

      .cls-17, .cls-6, .cls-18, .cls-8 {
        fill: #fff;
      }

      .cls-17, .cls-19, .cls-20, .cls-21, .cls-22, .cls-23, .cls-24 {
        font-family: Inter-Regular, Inter;
      }

      .cls-17, .cls-21, .cls-24 {
        font-size: 12.7px;
      }

      .cls-6, .cls-9, .cls-13 {
        stroke-width: .5px;
      }

      .cls-19 {
        font-size: 11px;
      }

      .cls-19, .cls-24 {
        fill: #46505a;
      }

      .cls-25, .cls-13 {
        fill: #f9f5ff;
      }

      .cls-7 {
        stroke: #fff;
      }

      .cls-26 {
        letter-spacing: 0em;
      }

      .cls-27 {
        fill: url(#linear-gradient-4);
      }

      .cls-28 {
        fill: #0e729e;
      }

      .cls-29 {
        letter-spacing: 0em;
      }

      .cls-20 {
        font-size: 16px;
      }

      .cls-20, .cls-21, .cls-30, .cls-23 {
        fill: #4678be;
      }

      .cls-31 {
        letter-spacing: -.04em;
      }

      .cls-32 {
        letter-spacing: -.02em;
      }

      .cls-33 {
        letter-spacing: 0em;
      }

      .cls-34 {
        fill: #4678c8;
      }

      .cls-35 {
        fill: url(#linear-gradient-3);
      }

      .cls-8, .cls-10 {
        stroke: #dbdbdb;
      }

      .cls-9 {
        fill: #fcfaff;
      }

      .cls-36 {
        letter-spacing: -.02em;
      }

      .cls-10 {
        stroke-width: .25px;
      }

      .cls-11 {
        stroke: #d3d3d3;
      }

      .cls-37 {
        letter-spacing: -.02em;
      }

      .cls-38 {
        letter-spacing: -.08em;
      }

      .cls-39 {
        letter-spacing: .02em;
      }

      .cls-40 {
        fill: #d3d3d3;
      }

      .cls-41 {
        opacity: .2;
      }

      .cls-12 {
        isolation: isolate;
        opacity: .75;
        stroke: #fa0096;
        stroke-width: .39px;
      }

      .cls-42 {
        letter-spacing: 0em;
      }

      .cls-43 {
        letter-spacing: -.06em;
      }

      .cls-44 {
        letter-spacing: 0em;
      }

      .cls-45 {
        fill: #d2e9ff;
      }

      .cls-46 {
        letter-spacing: 0em;
      }

      .cls-47 {
        letter-spacing: .01em;
      }

      .cls-48 {
        letter-spacing: .02em;
      }

      .cls-22 {
        fill: #8c8c8c;
        font-size: 13px;
      }

      .cls-49 {
        letter-spacing: .02em;
      }

      .cls-50 {
        letter-spacing: -.01em;
      }

      .cls-23 {
        font-size: 14px;
      }

      .cls-51 {
        letter-spacing: 0em;
      }

      .cls-52 {
        letter-spacing: -.03em;
      }

      .cls-14 {
        stroke: #ff3278;
        stroke-linecap: round;
        stroke-linejoin: round;
      }

      .cls-53 {
        fill: #2e6cb7;
      }

      .cls-54 {
        letter-spacing: 0em;
      }

      .cls-55 {
        letter-spacing: -.02em;
      }

      .cls-56 {
        letter-spacing: -.02em;
      }

      .cls-57 {
        letter-spacing: 0em;
      }

      .cls-58 {
        fill: url(#linear-gradient);
      }

      .cls-59 {
        letter-spacing: 0em;
      }
    </style>
    <linearGradient id="linear-gradient" x1="45.51" y1="15.43" x2="45.51" y2="42.56" gradientUnits="userSpaceOnUse">
      <stop offset="0" stop-color="#f0a"/>
      <stop offset=".3" stop-color="#fc00ac"/>
      <stop offset=".48" stop-color="#f400b2"/>
      <stop offset=".63" stop-color="#e500be"/>
      <stop offset=".76" stop-color="#d100ce"/>
      <stop offset=".88" stop-color="#b700e3"/>
      <stop offset=".99" stop-color="#9700fd"/>
      <stop offset="1" stop-color="#9600ff"/>
    </linearGradient>
    <linearGradient id="linear-gradient-2" x1="66.35" y1="15.43" x2="66.35" y2="42.56" xlink:href="#linear-gradient"/>
    <linearGradient id="linear-gradient-3" x1="100.46" y1="15.43" x2="100.46" y2="42.56" xlink:href="#linear-gradient"/>
    <linearGradient id="linear-gradient-4" x1="133.99" y1="15.43" x2="133.99" y2="42.56" xlink:href="#linear-gradient"/>
  </defs>
  <g id="Layer_1" data-name="Layer 1">
    <g class="cls-41">
      <rect class="cls-45" x="1" y="61" width="186.79" height="38.71"/>
      <path class="cls-28" d="M186.79,62v36.71H2v-36.71h184.79M188.79,60H0v40.71h188.79v-40.71h0Z"/>
    </g>
    <rect class="cls-10" x="0" y="100.71" width="188.79" height="40.71"/>
    <rect class="cls-10" x="0" y="60.17" width="188.79" height="40.71"/>
    <rect class="cls-10" x="0" y="141.43" width="188.79" height="40.71"/>
    <rect class="cls-8" x="188.79" y="60" width="1177.21" height="40.71"/>
    <text class="cls-23" transform="translate(56.29 85.12)"><tspan x="0" y="0">Empl</tspan><tspan class="cls-56" x="32.64" y="0">oy</tspan><tspan x="48.36" y="0">ee </tspan></text>
    <text class="cls-23" transform="translate(56.29 125.84)"><tspan x="0" y="0">L</tspan><tspan class="cls-42" x="7.92" y="0">e</tspan><tspan class="cls-50" x="16.21" y="0">a</tspan><tspan class="cls-56" x="23.87" y="0">v</tspan><tspan x="31.47" y="0">es</tspan></text>
    <text class="cls-23" transform="translate(56.29 166.55)"><tspan x="0" y="0">Holid</tspan><tspan class="cls-50" x="34.15" y="0">a</tspan><tspan x="41.81" y="0">ys</tspan></text>
    <rect class="cls-10" x="0" y="182.14" width="188.79" height="40.71"/>
    <text class="cls-23" transform="translate(56.29 207.27)"><tspan x="0" y="0">Ou</tspan><tspan class="cls-26" x="18.98" y="0">t</tspan><tspan x="23.43" y="0">door Du</tspan><tspan class="cls-48" x="76.38" y="0">t</tspan><tspan x="81.23" y="0">y</tspan></text>
    <rect class="cls-10" x="0" y="222.86" width="188.79" height="40.71"/>
    <text class="cls-23" transform="translate(56.29 247.98)"><tspan x="0" y="0">Expense</tspan></text>
    <rect class="cls-10" x="0" y="263.57" width="188.79" height="40.71"/>
    <text class="cls-23" transform="translate(56.29 288.7)"><tspan class="cls-56" x="0" y="0">A</tspan><tspan x="9.39" y="0">t</tspan><tspan class="cls-26" x="13.97" y="0">t</tspan><tspan x="18.41" y="0">endance</tspan></text>
    <rect class="cls-10" x="0" y="304.29" width="188.79" height="40.71"/>
    <text class="cls-23" transform="translate(56.29 329.41)"><tspan x="0" y="0">IT Compu</tspan><tspan class="cls-29" x="64.47" y="0">t</tspan><tspan x="69.12" y="0">ation</tspan></text>
    <rect class="cls-10" x="0" y="345" width="188.79" height="40.71"/>
    <text class="cls-23" transform="translate(56.29 370.12)"><tspan x="0" y="0">Sala</tspan><tspan class="cls-49" x="28.1" y="0">r</tspan><tspan x="33.58" y="0">y</tspan></text>
    <rect class="cls-10" x="0" y="385.71" width="188.79" height="40.71"/>
    <text class="cls-23" transform="translate(56.29 410.84)"><tspan x="0" y="0">Documen</tspan><tspan class="cls-26" x="63.47" y="0">t</tspan><tspan x="67.92" y="0">s</tspan></text>
    <rect class="cls-10" x="0" y="426.43" width="188.79" height="40.71"/>
    <text class="cls-23" transform="translate(56.29 451.55)"><tspan class="cls-43" x="0" y="0">T</tspan><tspan x="8.24" y="0">raining &amp; D</tspan><tspan class="cls-56" x="80.28" y="0">e</tspan><tspan class="cls-31" x="88.17" y="0">v</tspan><tspan x="95.42" y="0">.</tspan></text>
    <rect class="cls-10" x="0" y="467.14" width="188.79" height="40.71"/>
    <text class="cls-23" transform="translate(56.29 492.27)"><tspan class="cls-46" x="0" y="0">P</tspan><tspan x="8.87" y="0">e</tspan><tspan class="cls-49" x="17.03" y="0">r</tspan><tspan class="cls-52" x="22.52" y="0">f</tspan><tspan x="27.29" y="0">o</tspan><tspan class="cls-49" x="35.68" y="0">r</tspan><tspan x="41.17" y="0">mance</tspan></text>
    <rect class="cls-10" x="0" y="507.86" width="188.79" height="40.71"/>
    <text class="cls-23" transform="translate(56.29 532.98)"><tspan x="0" y="0">HR </tspan><tspan class="cls-46" x="23.35" y="0">P</tspan><tspan x="32.22" y="0">olicies</tspan></text>
    <rect class="cls-10" x="0" y="548.57" width="188.79" height="40.71"/>
    <text class="cls-23" transform="translate(56.29 573.7)"><tspan class="cls-50" x="0" y="0">R</tspan><tspan x="8.8" y="0">epo</tspan><tspan class="cls-49" x="33.93" y="0">r</tspan><tspan class="cls-26" x="39.42" y="0">t</tspan><tspan x="43.87" y="0">s</tspan></text>
    <rect class="cls-10" x="0" y="589.29" width="188.79" height="40.71"/>
    <text class="cls-23" transform="translate(56.29 614.41)"><tspan x="0" y="0">Suppo</tspan><tspan class="cls-49" x="42.8" y="0">r</tspan><tspan x="48.29" y="0">t</tspan></text>
    <text class="cls-20" transform="translate(214.81 85.36)"><tspan x="0" y="0">Empl</tspan><tspan class="cls-56" x="37.3" y="0">oy</tspan><tspan x="55.27" y="0">ee Setup</tspan></text>
    <g id="icons">
      <g>
        <path class="cls-30" d="M1315.76,45.5c-8.74,0-15.83-7.09-15.83-15.81s7.09-15.83,15.83-15.83,15.83,7.09,15.83,15.83-7.09,15.83-15.83,15.83v-.02ZM1315.76,15.45c-7.84,0-14.23,6.39-14.23,14.23s6.39,14.23,14.23,14.23,14.23-6.39,14.23-14.23-6.39-14.23-14.23-14.23Z"/>
        <g>
          <circle class="cls-30" cx="1315.76" cy="24.27" r="5"/>
          <path class="cls-30" d="M1321.94,40.8c.11-.08.24-.16.35-.24.06-.05.11-.1.18-.13.11-.08.21-.16.3-.26.05-.05.1-.1.16-.14.1-.1.18-.18.27-.27.05-.05.08-.1.13-.14.08-.1.16-.19.22-.29.03-.05.06-.11.1-.16.06-.1.13-.21.18-.3.03-.05.05-.11.08-.16.05-.11.1-.21.13-.32.02-.05.03-.11.05-.16.03-.11.06-.22.08-.35,0-.05,0-.1.02-.16,0-.06.02-.11.02-.18h0c0-.1.02-.18,0-.27v-5.21c.02-.46-.61-.85-1.41-.86h-14.07c-.8,0-1.42.4-1.41.86v5.48h0c0,.06.02.11.02.16s0,.1.02.16c.02.11.05.22.08.34,0,.05.03.11.05.16.03.11.08.22.13.32.03.05.05.11.08.16.05.1.11.21.18.3.03.05.06.11.1.16.06.1.14.19.22.29.05.05.08.1.13.16.08.1.18.18.27.27.05.05.1.1.16.14.1.08.21.18.3.26.06.05.11.1.18.13.11.08.22.16.35.24.06.05.13.08.19.13.13.08.26.14.38.21.06.03.14.08.21.11.13.06.27.13.42.19.08.03.16.06.24.11.14.06.29.11.43.16.08.03.18.06.26.1.14.05.3.1.46.14.1.03.19.06.29.08.16.05.32.08.48.11.1.02.21.05.3.06.16.03.32.05.48.08.11.02.22.03.34.05.18.02.35.03.54.05.1,0,.21.02.3.03.29.02.58.03.86.03h0c.29,0,.58-.02.86-.03.1,0,.21-.02.3-.03.18-.02.37-.03.54-.05.11,0,.22-.03.34-.05.16-.03.32-.05.48-.08.11-.02.21-.05.3-.06.16-.03.32-.06.46-.11.1-.03.19-.05.29-.08.16-.05.3-.08.45-.14.1-.03.18-.06.26-.1.14-.05.3-.11.43-.16.08-.03.16-.06.24-.11.14-.06.29-.13.42-.19.08-.03.14-.08.22-.11.13-.06.26-.14.38-.21.06-.05.13-.08.19-.13l.03.02Z"/>
        </g>
      </g>
    </g>
    <path class="cls-30" d="M188.79,14.48c.68,10.1.68,20.31,0,30.41-.68-10.1-.68-20.31,0-30.41h0Z"/>
    <g>
      <path class="cls-58" d="M42.85,17.18h5.31v25.01h-5.31v-25.01Z"/>
      <path class="cls-15" d="M53.84,17.18h12.89c8.07,0,12.13,3.22,12.13,9.7v5.61c0,6.48-4.06,9.7-12.13,9.7h-12.89v-25.01ZM65.97,38.97c5.04,0,7.58-2.01,7.58-6.06v-6.44c0-4.06-2.54-6.06-7.58-6.06h-6.82v18.57h6.82Z"/>
      <path class="cls-35" d="M84.16,17.18h6.82l9.47,19.86,9.48-19.86h6.82v25.01h-5.31v-17.47l-8.34,17.47h-5.31l-8.34-17.47v17.47h-5.31v-25.01Z"/>
      <path class="cls-27" d="M122.06,38.97h17.06c1.02,0,1.52-.42,1.52-1.21v-6.1c0-.8-.49-1.21-1.52-1.21h-11.37c-3.79,0-5.69-1.52-5.69-4.55v-4.17c0-3.03,1.9-4.55,5.69-4.55h16.3v3.22h-15.16c-1.02,0-1.52.42-1.52,1.21v4.4c0,.8.49,1.21,1.52,1.21h11.37c3.79,0,5.69,1.52,5.69,4.55v5.87c0,3.03-1.9,4.55-5.69,4.55h-18.19v-3.22Z"/>
    </g>
    <line class="cls-5" x1="0" y1="60" x2="1366" y2="60"/>
    <line class="cls-4" x1="47.91" y1="67.86" x2="47.91" y2="92.86"/>
    <line class="cls-4" x1="47.91" y1="108.57" x2="47.91" y2="133.57"/>
    <line class="cls-4" x1="47.91" y1="149.29" x2="47.91" y2="174.29"/>
    <line class="cls-4" x1="47.91" y1="190" x2="47.91" y2="215"/>
    <line class="cls-4" x1="47.91" y1="230.71" x2="47.91" y2="255.71"/>
    <line class="cls-4" x1="47.91" y1="271.43" x2="47.91" y2="296.43"/>
    <line class="cls-4" x1="47.91" y1="312.14" x2="47.91" y2="337.14"/>
    <line class="cls-4" x1="47.91" y1="352.86" x2="47.91" y2="377.86"/>
    <line class="cls-4" x1="47.91" y1="393.57" x2="47.91" y2="418.57"/>
    <line class="cls-4" x1="47.91" y1="434.29" x2="47.91" y2="459.29"/>
    <line class="cls-4" x1="47.91" y1="475" x2="47.91" y2="500"/>
    <line class="cls-4" x1="47.91" y1="515.71" x2="47.91" y2="540.71"/>
    <line class="cls-4" x1="47.91" y1="556.43" x2="47.91" y2="581.43"/>
    <line class="cls-4" x1="47.91" y1="597.14" x2="47.91" y2="622.14"/>
    <g id="landing_page" data-name="landing page">
      <path class="cls-53" d="M25.72,599.64c-5.69,0-10.32,4.61-10.32,10.27v5.29c0,.29.24.53.53.53s.53-.24.53-.53v-.58h1.17v2.53c0,.76.62,1.36,1.37,1.36h1.67c.76,0,1.37-.62,1.37-1.36v-6.12c0-.76-.62-1.36-1.37-1.36h-1.67c-.76,0-1.37.62-1.37,1.36v2.53h-1.17v-3.64c.01-5.1,4.15-9.23,9.26-9.23s9.26,4.13,9.26,9.21v3.64h-1.17v-2.53c0-.76-.62-1.36-1.37-1.36h-1.67c-.76,0-1.37.62-1.37,1.36v6.12c0,.76.62,1.36,1.37,1.36h1.67c.76,0,1.37-.62,1.37-1.36v-2.53h1.17v.58c0,.29.24.53.53.53s.53-.24.53-.53v-5.29c0-5.65-4.63-10.26-10.32-10.26Z"/>
    </g>
    <g id="Franstek">
      <path class="cls-53" d="M33.45,518.21h-15.46c-.72,0-1.35.64-1.35,1.36v17.27c0,.72.63,1.36,1.35,1.36h15.46c.72,0,1.36-.64,1.36-1.36v-17.27c0-.72-.64-1.36-1.36-1.36ZM33.9,536.85c0,.27-.18.45-.45.45h-15.46c-.27,0-.45-.17-.45-.45v-17.27c0-.27.18-.46.45-.46h15.46c.27,0,.45.18.45.46v17.27Z"/>
      <path class="cls-53" d="M32.35,519.85h-13.26c-.5,0-.92.41-.92.92v14.89c0,.5.41.92.92.92h13.26c.5,0,.92-.41.92-.92v-14.89c0-.5-.41-.92-.92-.92ZM28.53,532.39l-2.36-2.45.09-.09c-.09-.09-.27-.37-.54-.37-.18,0-.37.27-.55.37l-2.45,2.45v-8.18h5.81v8.27Z"/>
    </g>
    <g>
      <path class="cls-53" d="M34.58,115.6h-2.83v-1.37c0-.36-.29-.66-.66-.66s-.66.29-.66.66v1.37h-9.91v-1.37c0-.36-.29-.66-.66-.66s-.66.29-.66.66v1.37h-2.34c-.57,0-1.04.47-1.04,1.04v15.89c0,.58.47,1.04,1.04,1.04h17.71c.57,0,1.04-.46,1.04-1.04v-15.89c0-.57-.47-1.04-1.04-1.04ZM34.63,132.61h-17.81v-12.7h17.81v12.7Z"/>
      <rect class="cls-16" x="23.68" y="121.48" width="4.09" height="4.09"/>
      <path class="cls-53" d="M22.38,121.42h-4.23v4.23h4.23v-4.23ZM18.67,121.94h3.16v3.17h-3.16v-3.17Z"/>
      <path class="cls-53" d="M22.38,126.87h-4.23v4.23h4.23v-4.23ZM18.68,130.57v-3.16h3.17v3.16h-3.17Z"/>
      <rect class="cls-16" x="29.14" y="121.48" width="4.09" height="4.09"/>
      <path class="cls-53" d="M27.84,126.87h-4.23v4.23h4.23v-4.23ZM24.15,130.57v-3.16h3.16v3.16h-3.16Z"/>
      <path class="cls-53" d="M33.3,131.09v-4.22h-4.23v4.23h4.23ZM29.61,130.57v-3.16h3.17v3.16h-3.17Z"/>
    </g>
    <g>
      <path class="cls-53" d="M34.58,153.82h-2.83v-1.37c0-.36-.29-.66-.66-.66s-.66.29-.66.66v1.37h-9.91v-1.37c0-.36-.29-.66-.66-.66s-.66.29-.66.66v1.37h-2.34c-.57,0-1.04.47-1.04,1.04v15.89c0,.58.47,1.04,1.04,1.04h17.71c.57,0,1.04-.46,1.04-1.04v-15.89c0-.57-.47-1.04-1.04-1.04ZM34.63,170.83h-17.81v-12.7h17.81v12.7Z"/>
      <g>
        <path class="cls-16" d="M21.46,162.18c0-.53.33-.8,1-.8h1.73c.18,0,.27-.07.27-.21v-.77c0-.14-.09-.21-.27-.21h-2.39v-.56h2.59c.67,0,1,.27,1,.8v.73c0,.53-.33.8-1,.8h-1.73c-.18,0-.27.07-.27.21v1.28h2.99v.57h-3.92v-1.83Z"/>
        <path class="cls-16" d="M26.19,160.58c0-.64.4-.96,1.2-.96h2.39v.56h-2.13c-.35,0-.53.14-.53.43v.77h2c.67,0,1,.27,1,.8v1.03c0,.53-.33.8-1,.8h-1.93c-.67,0-1-.27-1-.8v-2.63ZM27.38,163.45h1.53c.18,0,.27-.07.27-.21v-1.07c0-.14-.09-.21-.27-.21h-1.8v1.28c0,.14.09.21.27.21Z"/>
        <path class="cls-16" d="M20.8,168.16h.62v.52c0,.19.12.28.35.28h.93c.12,0,.18-.05.18-.14v-2.41h.62v2.4c0,.35-.22.53-.67.53h-1.24c-.53,0-.8-.21-.8-.64v-.54Z"/>
        <path class="cls-16" d="M25.21,166.41h.71l1.38,2.93h-.63l-.34-.73h-1.52l-.34.73h-.63l1.38-2.93ZM26.15,168.23l-.58-1.24-.58,1.24h1.16Z"/>
        <path class="cls-16" d="M27.67,166.41h.71l1.64,2.17v-2.17h.62v2.93h-.71l-1.64-2.17v2.17h-.62v-2.93Z"/>
      </g>
    </g>
    <g id="Franstek-2" data-name="Franstek">
      <path class="cls-53" d="M24.28,210.04v1.98c0,.26-.26.48-.58.48h-3.59l-.24-2.26h0c-.02-.1.02-.19.09-.27,0,0,0,0,0-.02l.31-.45c.04-.06.04-.13,0-.19l-.31-.44c-.04-.06-.12-.1-.2-.1h-.62c-.08,0-.16.04-.2.1l-.31.44c-.04.06-.04.13,0,.19l.31.45s0,0,0,.02c.07.08.11.17.09.27h0l-.24,2.26h-3.6c-.32,0-.58-.21-.58-.48v-1.98c0-.66.48-1.25,1.19-1.52.11-.04.23-.07.35-.1l1.33-.39s0-.02,0-.03l.23-.48c.05-.1.19-.14.29-.08l.85.42.57.28.57-.28.84-.42c.11-.05.25-.02.3.08l.23.48s0,.02,0,.03l1.33.39c.12.03.24.06.35.1.71.26,1.19.85,1.19,1.52h0Z"/>
      <path class="cls-53" d="M21.76,203.99v.52c0,.13,0,.25-.03.37-.03.2-.08.39-.15.58-.15.4-.39.76-.7,1.08-.05.05-.1.1-.16.15l-.19.16c-.24.22-.58.34-.94.34h-.28c-.35,0-.7-.12-.94-.34l-.19-.16c-.06-.05-.11-.1-.16-.15-.21-.21-.38-.44-.52-.69-.17-.31-.29-.64-.34-.98-.02-.12-.03-.24-.03-.35v-.52c0-.18.03-.35.09-.52.28-.81,1.19-1.37,2.22-1.37s1.94.57,2.22,1.38c.06.16.09.34.09.51h0Z"/>
      <path class="cls-53" d="M25.05,194.88c-.29,0-.52.23-.52.52s.23.52.52.52.52-.23.52-.52-.23-.52-.52-.52Z"/>
      <path class="cls-53" d="M21.49,196.69c.06,0,.12-.02.17-.05.08-.05.13-.12.16-.21.02-.09,0-.18-.03-.26-.06-.1-.17-.17-.29-.17-.06,0-.12.02-.17.05-.08.05-.13.12-.16.21-.02.09,0,.18.03.26.06.1.17.17.29.17Z"/>
      <path class="cls-53" d="M18.71,199.25s.11.05.17.05c.12,0,.23-.07.29-.17.05-.08.06-.17.03-.26-.02-.09-.08-.16-.16-.21-.05-.03-.11-.05-.17-.05-.12,0-.23.07-.29.17-.05.08-.06.17-.03.26.02.09.08.16.16.21Z"/>
      <path class="cls-53" d="M25.05,210.13c.29,0,.52-.23.52-.52s-.23-.52-.52-.52-.52.23-.52.52.23.52.52.52Z"/>
      <path class="cls-53" d="M28.6,208.32c-.06,0-.12.02-.17.05-.08.05-.13.12-.16.21-.02.09,0,.18.03.26.06.1.17.17.29.17.06,0,.12-.02.17-.05.08-.05.13-.12.16-.21.02-.09,0-.18-.03-.26-.06-.1-.17-.17-.29-.17Z"/>
      <path class="cls-53" d="M31.38,205.76s-.11-.05-.17-.05c-.12,0-.23.07-.29.17-.05.08-.06.17-.03.26.02.09.08.16.16.21.05.03.11.05.17.05.12,0,.23-.07.29-.17.05-.08.06-.17.03-.26-.02-.09-.08-.16-.16-.21Z"/>
      <path class="cls-53" d="M31.5,198.78c-.06-.1-.17-.17-.29-.17-.06,0-.12.02-.17.05-.08.05-.13.12-.16.21s0,.18.03.26c.06.1.17.17.29.17.06,0,.12-.02.17-.05.08-.05.13-.12.16-.21.02-.09,0-.18-.03-.26Z"/>
      <path class="cls-53" d="M28.77,196.05s-.11-.05-.17-.05c-.12,0-.23.07-.29.17-.05.08-.06.17-.03.26.02.09.08.16.16.21.05.03.11.05.17.05.12,0,.23-.07.29-.17.05-.08.06-.17.03-.26-.02-.09-.08-.16-.16-.21Z"/>
      <polygon class="cls-16" points="25.28 196.52 25.07 196.52 24.9 201.96 24.68 201.95 24.68 202.54 24.88 202.53 24.88 202.74 25.48 202.74 25.47 202.5 28.63 202.36 28.63 202.15 25.45 201.99 25.28 196.52"/>
      <path class="cls-53" d="M25.04,212.5c2.88,0,5.61-1.24,7.52-3.41l-.75-1.06c-1.67,2.04-4.13,3.21-6.76,3.21v1.26h0Z"/>
      <path class="cls-53" d="M16.58,204.66c-.18-.69-.27-1.42-.27-2.16,0-4.82,3.91-8.74,8.73-8.74,3.58,0,6.76,2.15,8.11,5.48.16.4.29.81.39,1.22.1.4.16.81.2,1.22l.05.56h-2.01l2.52,3.55,2.52-3.55h-1.76l-.03-.48c-.03-.36-.07-.73-.14-1.09-.07-.37-.16-.73-.27-1.09-.61-2-1.88-3.81-3.57-5.08-1.74-1.31-3.82-2.01-6-2.01-5.52,0-10,4.5-10,10,0,.85.11,1.67.31,2.46l1.23-.3Z"/>
    </g>
    <g id="landing_page-2" data-name="landing page">
      <g>
        <g>
          <path class="cls-53" d="M33.08,559.81h-14.71c-.5,0-.91.45-.91,1v16.24c0,.55.41,1,.91,1h14.71c.5,0,.91-.45.91-1v-16.24c0-.55-.41-1-.91-1ZM33.54,577.05c0,.28-.21.51-.46.51h-14.71c-.25,0-.46-.23-.46-.51v-16.24c0-.28.21-.51.46-.51h14.71c.25,0,.46.23.46.51v16.24Z"/>
          <path class="cls-53" d="M33.08,559.33h-14.71c-.73,0-1.34.67-1.34,1.48v16.24c0,.81.61,1.48,1.34,1.48h14.71c.74,0,1.34-.67,1.34-1.48v-16.24c0-.81-.6-1.48-1.34-1.48ZM33.54,577.05c0,.28-.21.51-.46.51h-14.71c-.25,0-.46-.23-.46-.51v-16.24c0-.28.21-.51.46-.51h14.71c.25,0,.46.23.46.51v16.24Z"/>
        </g>
        <g>
          <path class="cls-16" d="M31.07,566.53c0,.24-.18.43-.39.43h-9.91c-.21,0-.38-.19-.38-.43s.17-.42.38-.42h9.91c.21,0,.39.19.39.42Z"/>
          <path class="cls-16" d="M31.07,570.33c0,.23-.18.42-.39.42h-9.91c-.21,0-.38-.19-.38-.42s.17-.43.38-.43h9.91c.21,0,.39.19.39.43Z"/>
          <path class="cls-16" d="M31.07,574.12c0,.23-.18.42-.39.42h-9.91c-.21,0-.38-.19-.38-.42s.17-.43.38-.43h9.91c.21,0,.39.19.39.43Z"/>
        </g>
        <path class="cls-16" d="M26.11,562.74c0,.24-.17.43-.39.43h-4.95c-.21,0-.38-.19-.38-.43s.17-.42.38-.42h4.95c.22,0,.39.19.39.42Z"/>
      </g>
    </g>
    <g id="Franstek-3" data-name="Franstek">
      <path class="cls-53" d="M35.67,79.15l-.24-.74c-.08-.25-.07-.48-.03-.67.09-.44.04-.89-.22-1.25-.08-.11-.16-.2-.23-.26-.15-.14-.23-.34-.23-.54h0c0-.9-.42-1.7-1.06-2.2-.44-.34-.98-.49-1.52-.49h-.02c-.62,0-1.22.2-1.7.62-.56.5-.91,1.24-.91,2.06,0,.21-.09.41-.23.54-.07.06-.14.14-.23.26-.26.35-.32.82-.22,1.25.04.19.05.42-.03.67l-.23.69c-.23.71.27,1.45.99,1.45h1.46c-.48-.49-.84-1.23-.89-2.08,0-.08,0-.16,0-.24,0-.6.25-1.16.65-1.4.29-.17.48-.5.72-1.22,0,0,.07,1.43,1.13,1.09.56-.18.83-.49,1.18.12.2.35.31.8.31,1.25v.54c0,.54-.13,1.05-.35,1.46-.1.19-.22.35-.35.5h1.28c.69,0,1.18-.71.95-1.4v-.03Z"/>
      <path class="cls-53" d="M35.96,82.14c-.07-.03-1.07-.32-1.74-.6-.08-.03-.14-.06-.21-.08h-.05l.14.67.12.58c.02.1-.02.19-.11.23l-.6.34c-.08.05-.13.15-.1.25l.14.52c.02.08,0,.17-.06.22l-.79.98-.14-2.22c-.02-.08,0-.17.04-.24l.24-.44c.06-.11.06-.25,0-.36l-.2-.37c-.06-.11-.17-.18-.3-.18h-.41c-.12,0-.24.07-.3.18l-.2.37c-.06.11-.06.25,0,.36l.24.44c.04.08.05.16.04.24l-.14,2.22-.79-.98c-.06-.06-.08-.14-.06-.22l.14-.52c.02-.1-.02-.2-.1-.25l-.61-.34c-.08-.05-.12-.14-.11-.23l.11-.53.14-.71h-.05c-.07.03-.14.06-.21.08-.34.14-.95.29-1.23.4,0,0-.02,0-.03.02-.13.05-.23.1-.32.13-.1.04-.15.06-.16.06-.44.19-1.02.79-1.02,1.67v3.02c0,.61.47,1.1,1.05,1.1h7.59c.58,0,1.04-.5,1.04-1.1v-3.02c0-.77-.47-1.43-1.02-1.67h0Z"/>
      <path class="cls-53" d="M25.3,84.49v2.85c0,.38-.29.68-.65.68h-4.03l-.27-3.24h0c-.02-.14.02-.28.11-.39,0,0,.02-.02.02-.02l.35-.64c.05-.09.05-.19,0-.28l-.35-.64c-.05-.09-.14-.14-.23-.14h-.7c-.1,0-.18.05-.23.14l-.35.64c-.05.09-.05.19,0,.28l.35.64s0,.02.02.02c.08.11.12.25.11.38h0l-.27,3.25h-4.05c-.36,0-.65-.31-.65-.68v-2.85c0-.95.54-1.8,1.34-2.18.13-.06.26-.11.39-.14l1.49-.56s0-.03.02-.05l.26-.69c.05-.14.21-.2.33-.12l.95.6.64.41.64-.41.95-.6c.12-.08.29-.02.33.11l.26.69s.02.03.02.05l1.49.56c.14.04.27.08.39.14.8.38,1.34,1.22,1.34,2.18h.02Z"/>
      <path class="cls-53" d="M22.47,75.81v.75c0,.19-.02.36-.03.53-.04.29-.1.56-.17.83-.17.57-.44,1.1-.79,1.55-.06.08-.12.15-.18.22l-.21.23c-.27.31-.65.49-1.05.49h-.32c-.4,0-.78-.18-1.05-.49l-.21-.23c-.06-.07-.12-.14-.18-.22-.23-.3-.44-.64-.59-1-.2-.44-.32-.92-.38-1.4-.02-.17-.04-.34-.04-.5v-.75c0-.26.03-.51.1-.75.32-1.16,1.34-1.97,2.5-1.97s2.18.81,2.49,1.98c.07.23.1.48.1.73Z"/>
    </g>
    <g>
      <path class="cls-16" d="M28.82,314.64c-1.9,0-3.45,1.54-3.45,3.45s1.55,3.44,3.45,3.44,3.45-1.54,3.45-3.44-1.55-3.45-3.45-3.45ZM27.79,315.67c.57,0,1.03.46,1.03,1.04s-.46,1.03-1.03,1.03-1.04-.46-1.04-1.03.46-1.04,1.04-1.04ZM27.34,320.05l-.49-.48,3.45-3.45.49.48-3.45,3.45ZM29.85,320.5c-.57,0-1.03-.46-1.03-1.04s.46-1.03,1.03-1.03,1.04.46,1.04,1.03-.46,1.04-1.04,1.04Z"/>
      <path class="cls-53" d="M30.89,326.36v.69h.69v-.69h-.69ZM29.51,326.36v.69h.69v-.69h-.69ZM28.13,326.36v.69h.69v-.69h-.69ZM27.44,323.6v-1.03h-.69v.9l-.69.81-.69-.81v-.9h-.69v1.03c0,.08.03.16.09.23l.84.98-.84.98c-.06.06-.09.14-.09.23v1.03h.69v-.91l.69-.8.69.8v.91h.69v-1.03c0-.09-.03-.17-.08-.23l-.84-.98.84-.98c.05-.07.08-.15.08-.23ZM22.61,322.57c-.76,0-1.38.62-1.38,1.38v3.1h.69v-1.38h1.38v1.38h.69v-3.1c0-.76-.62-1.38-1.38-1.38ZM23.3,324.98h-1.38v-1.03c0-.38.31-.69.69-.69s.69.31.69.69v1.03ZM17.79,322.57v.69h1.37v3.79h.69v-3.79h1.38v-.69h-3.44Z"/>
      <circle class="cls-16" cx="29.86" cy="319.47" r=".34"/>
      <path class="cls-53" d="M16.41,318.43c0-.19.15-.34.34-.34h7.93c0-.23.02-.46.06-.69h-8.34c-.38,0-.69.31-.69.69v9.66h.69v-9.31Z"/>
      <circle class="cls-16" cx="27.79" cy="316.71" r=".34"/>
      <rect class="cls-53" x="21.58" y="333.95" width="8.28" height=".69"/>
      <path class="cls-53" d="M15.72,328.43v1.38c0,.38.31.69.69.69h18.62c.38,0,.69-.31.69-.69v-1.38H15.72ZM26.06,329.81h-.69v-.69h.69v.69Z"/>
      <path class="cls-53" d="M24.69,331.19v1.03c0,.1-.05.2-.13.27l-.96.77h4.24l-.96-.77c-.08-.07-.13-.16-.13-.27v-1.03h-2.07Z"/>
      <path class="cls-53" d="M35.03,317.4h-2.13c.04.23.06.46.06.69h1.72c.19,0,.34.15.34.34v9.31h.69v-9.66c0-.38-.31-.69-.69-.69Z"/>
    </g>
    <g id="_07-Salary" data-name=" 07-Salary">
      <path class="cls-53" d="M34.96,363.68l-.72-.46c-.16-.1-.36-.05-.46.1-.1.15-.05.36.1.46l.72.46c.06.04.11.08.15.13l-7.66,4.92-.58-.37c-.49-.31-1.1-.31-1.59,0l-.58.37-7.66-4.92s.1-.09.15-.13l.58-.37c.16-.1.2-.3.1-.46-.1-.16-.3-.2-.46-.1,0,0,0,0,0,0l-.58.37c-.48.31-.77.83-.77,1.4v8.61c0,.92.75,1.67,1.67,1.67h16.67c.92,0,1.67-.75,1.67-1.67v-8.61c0-.57-.29-1.1-.77-1.4ZM35.04,364.98s.01.07.01.11v8.61c0,.21-.07.42-.2.59l-7.15-4.59,7.33-4.71ZM16.59,374.28c-.13-.17-.2-.38-.2-.59v-8.61s0-.07.01-.11l7.33,4.71-7.15,4.59ZM17.39,374.69c-.06,0-.11,0-.17-.02l8.07-5.19c.26-.17.6-.17.87,0l8.07,5.19c-.06.01-.11.02-.17.02h-16.67ZM25.21,362.4c-1.13-.63-2.55-.23-3.18.9-.63,1.13-.23,2.55.9,3.18,1.13.63,2.55.23,3.18-.9.3-.54.38-1.18.21-1.77-.17-.6-.57-1.1-1.11-1.4ZM24.52,366.04c-.89.25-1.81-.26-2.06-1.15-.25-.89.26-1.81,1.15-2.06.89-.25,1.81.26,2.06,1.15,0,0,0,0,0,0,.25.89-.26,1.81-1.15,2.06ZM28.31,367.2l-2.41-8.52c-.67.05-1.3-.3-1.61-.9l-3.91,1.11c.05.67-.3,1.3-.9,1.61l1.45,5.11c.05.18-.05.36-.23.41-.18.05-.36-.05-.41-.23h0l-1.53-5.4c-.05-.18.05-.36.23-.41.53-.15.84-.7.69-1.23,0,0,0,0,0,0-.05-.18.05-.36.23-.41l4.49-1.27c.18-.05.36.05.41.23h0c.15.53.7.84,1.23.69,0,0,0,0,0,0,.18-.05.36.05.41.23l2.49,8.81c.05.18-.05.36-.23.41-.03,0-.06.01-.09.01-.15,0-.28-.1-.32-.24ZM17.12,359.47c-.25-.89.26-1.81,1.15-2.06l7.06-2c.66-.19,1.37.05,1.78.6h4.28c.92,0,1.67.75,1.67,1.67v6.8c0,.18-.15.33-.33.33s-.33-.15-.33-.33v-6.8c0-.55-.45-1-1-1h-3.97l.19.67h2.45c.18,0,.33.15.33.33,0,.55.45,1,1,1,.18,0,.33.15.33.33v6.32c0,.18-.15.33-.33.33s-.33-.15-.33-.33v-6.02c-.65-.13-1.17-.65-1.3-1.3h-1.96l2.33,8.25c.05.18-.05.36-.23.41-.03,0-.06.01-.09.01-.15,0-.28-.1-.32-.24l-2.75-9.7c-.15-.53-.7-.84-1.23-.69l-7.06,2c-.53.15-.84.7-.69,1.23l1.48,5.23c.05.18-.05.36-.23.41-.18.05-.36-.05-.41-.23h0l-1.48-5.23Z"/>
    </g>
    <g>
      <path class="cls-53" d="M16.18,444.84c-.11,0-.22-.04-.3-.12-.06-.05-.53-.54-.53-1.47,0-1.51,1.27-2.74,2.83-2.74h.4c1.56,0,2.83,1.23,2.83,2.74,0,.93-.48,1.41-.53,1.47-.08.08-.19.12-.3.12-1.4,0-2.43-.52-3-.89-.2.31-.58.65-1.26.87-.04.01-.09.02-.13.02h0ZM17.38,442.83c.11,0,.21.04.29.11,0,0,1.02.95,2.68,1.03.08-.13.18-.37.18-.72,0-1.03-.88-1.87-1.96-1.87h-.4c-1.08,0-1.96.84-1.96,1.87,0,.28.06.48.13.63.57-.27.6-.62.6-.64.01-.17.12-.32.28-.38.05-.02.11-.03.16-.03h0Z"/>
      <path class="cls-53" d="M18.37,447.43c-1.43,0-2.59-1.16-2.59-2.59v-.43c0-.24.19-.43.43-.43s.43.19.43.43v.43c0,.96.77,1.73,1.73,1.73s1.73-.77,1.73-1.73v-.43c0-.24.19-.43.43-.43s.43.19.43.43v.43c0,1.43-1.16,2.59-2.59,2.59Z"/>
      <path class="cls-53" d="M13.18,454.79c-.24,0-.43-.19-.43-.43v-3.89c0-1.43,1.16-2.59,2.59-2.59h1.3c.24,0,.43-.19.43-.43v-.61c0-.24.19-.43.43-.43s.43.19.43.43v.61c0,.71-.58,1.3-1.3,1.3h-1.3c-.96,0-1.73.78-1.73,1.73v3.89c0,.24-.19.43-.43.43Z"/>
      <path class="cls-53" d="M18.37,450.46c-1.19,0-2.16-.97-2.16-2.16,0-.24.19-.43.43-.43s.43.19.43.43c0,.71.58,1.3,1.3,1.3s1.3-.58,1.3-1.3c0-.24.19-.43.43-.43s.43.19.43.43c0,1.19-.97,2.16-2.16,2.16Z"/>
      <path class="cls-53" d="M21.83,454.79c-.24,0-.43-.19-.43-.43v-3.03c0-.15.08-.29.2-.37s.29-.09.42-.02l2.56,1.28c.41.2.9.18,1.28-.07l2.06-1.71c.27-.22.43-.54.45-.9,0-.22-.03-.42-.13-.61l-2.68,2.29c-.16.13-.38.14-.54.02l-2.77-2.08c-.37-.28-.83-.43-1.3-.43h-.87c-.71,0-1.3-.58-1.3-1.3v-.61c0-.24.19-.43.43-.43s.43.19.43.43v.61c0,.24.19.43.43.43h.87c.65,0,1.29.22,1.81.61l2.49,1.87,2.76-2.37c.17-.15.43-.14.59.02.42.42.64.99.61,1.59s-.3,1.15-.76,1.52l-2.08,1.73s-.03.02-.03.03c-.64.43-1.47.48-2.17.13l-1.94-.97v2.33c0,.24-.19.43-.43.43h.01Z"/>
      <path class="cls-16" d="M28.32,442.25h-5.19c-.24,0-.43-.19-.43-.43s.19-.43.43-.43h5.19c.24,0,.43.19.43.43s-.19.43-.43.43Z"/>
      <path class="cls-16" d="M26.59,443.97h-3.46c-.24,0-.43-.19-.43-.43s.19-.43.43-.43h3.46c.24,0,.43.19.43.43s-.19.43-.43.43Z"/>
      <path class="cls-16" d="M26.59,445.7h-3.46c-.24,0-.43-.19-.43-.43s.19-.43.43-.43h3.46c.24,0,.43.19.43.43s-.19.43-.43.43Z"/>
      <path class="cls-53" d="M36.97,452.62h-7.78c-.24,0-.43-.19-.43-.43s.19-.43.43-.43h7.78c.48,0,.86-.39.86-.86v-.43c0-.24.19-.43.43-.43s.43.19.43.43v.43c0,.96-.77,1.73-1.73,1.73Z"/>
      <path class="cls-53" d="M23.99,439.65h-4.76c-.24,0-.43-.19-.43-.43s.19-.43.43-.43h4.76c.24,0,.43.19.43.43s-.19.43-.43.43Z"/>
      <path class="cls-53" d="M38.26,449.16c-.24,0-.43-.19-.43-.43v-8.22c0-.48-.39-.86-.86-.86h-11.24c-.24,0-.43-.19-.43-.43s.19-.43.43-.43h11.24c.96,0,1.73.77,1.73,1.73v8.22c0,.24-.19.43-.43.43Z"/>
      <path class="cls-53" d="M14.91,454.79c-.24,0-.43-.19-.43-.43v-3.03c0-.24.19-.43.43-.43s.43.19.43.43v3.03c0,.24-.19.43-.43.43Z"/>
      <path class="cls-16" d="M33.07,449.16c-2.14,0-3.89-1.75-3.89-3.89s1.75-3.89,3.89-3.89,3.89,1.75,3.89,3.89-1.75,3.89-3.89,3.89ZM33.07,442.25c-1.67,0-3.03,1.36-3.03,3.03s1.36,3.03,3.03,3.03,3.03-1.36,3.03-3.03-1.36-3.03-3.03-3.03Z"/>
      <path class="cls-16" d="M36.53,445.7h-3.46c-.24,0-.43-.19-.43-.43v-3.46c0-.24.19-.43.43-.43s.43.19.43.43v3.03h3.03c.24,0,.43.19.43.43s-.19.43-.43.43Z"/>
    </g>
    <g>
      <polygon class="cls-53" points="29.44 396.55 29.44 397.69 29.44 398.84 29.44 401.48 32.07 401.48 33.22 401.48 34.37 401.48 29.44 396.55"/>
      <path class="cls-53" d="M34.03,403.1h-5.41c-.45,0-.81-.36-.81-.81v-6.22h-6.22c-.45,0-.81.36-.81.81v15.68c0,.45.36.81.81.81h12.43c.45,0,.81-.36.81-.81v-9.46h-.81ZM30.79,410.13h-5.95c-.45,0-.81-.36-.81-.81s.36-.81.81-.81h5.95c.45,0,.81.36.81.81s-.36.81-.81.81ZM30.79,406.88h-5.95c-.45,0-.81-.36-.81-.81s.36-.81.81-.81h5.95c.45,0,.81.36.81.81s-.36.81-.81.81Z"/>
      <path class="cls-53" d="M31.33,414.45h-11.62v-14.86c0-.45-.36-.81-.81-.81s-.81.36-.81.81v15.68c0,.45.36.81.81.81h12.43c.45,0,.81-.36.81-.81,0-.45-.36-.81-.81-.81Z"/>
    </g>
    <g>
      <path class="cls-16" d="M26.72,482.61s.09-.02.13-.02c0,0,.02,0,.03,0,.04,0,.09-.01.13-.02,0,0,.02,0,.03,0,.04,0,.09-.01.13-.01,0,0,.02,0,.03,0,.02,0,.03,0,.05,0v-3.43s-.01,0-.02,0c-.02,0-.05,0-.07,0-.03,0-.05,0-.08,0-.02,0-.05,0-.07,0-.03,0-.05,0-.08,0-.02,0-.05,0-.07,0-.03,0-.05,0-.08,0-.02,0-.05,0-.07,0-.03,0-.05,0-.08,0-.02,0-.05,0-.07,0-.03,0-.05,0-.08.01-.02,0-.05,0-.07.01-.03,0-.05,0-.08.01-.02,0-.05,0-.07.01-.03,0-.05,0-.08.02-.02,0-.05,0-.07.01-.03,0-.05.01-.08.02-.02,0-.04,0-.07.01-.03,0-.05.01-.08.02-.02,0-.04.01-.07.02-.03,0-.05.01-.08.02-.02,0-.04.01-.07.02-.03,0-.05.01-.08.02-.02,0-.04.01-.06.02-.03,0-.05.02-.08.02-.02,0-.04.01-.06.02-.03,0-.05.02-.08.03-.02,0-.04.01-.06.02-.03,0-.05.02-.08.03-.02,0-.04.01-.06.02-.03,0-.05.02-.08.03-.02,0-.04.02-.06.02-.03.01-.05.02-.08.03-.02,0-.04.02-.06.02-.03.01-.05.02-.08.03-.02,0-.04.02-.06.03-.03.01-.05.02-.08.04-.02,0-.04.02-.06.03-.03.01-.05.02-.08.04-.02,0-.04.02-.06.03-.03.01-.05.03-.08.04-.02,0-.04.02-.05.03-.03.01-.05.03-.08.04-.02,0-.04.02-.05.03-.03.01-.05.03-.08.04-.02,0-.03.02-.05.03-.03.02-.05.03-.08.05-.02,0-.03.02-.05.03-.03.02-.06.03-.09.05-.01,0-.03.02-.04.03-.03.02-.06.04-.09.06-.01,0-.02.01-.03.02-.04.02-.07.05-.11.07,0,0,0,0-.01,0-.04.03-.08.06-.12.09,0,0,0,0,0,0-.04.03-.08.06-.12.09-.01,0-.02.02-.03.03-.03.02-.06.04-.08.06-.01.01-.03.02-.04.03-.02.02-.05.04-.07.06-.02.01-.03.03-.05.04-.02.02-.05.04-.07.06-.02.01-.03.03-.05.04-.02.02-.04.04-.06.05-.02.01-.03.03-.05.04-.02.02-.04.04-.06.05-.02.02-.03.03-.05.05-.02.02-.04.04-.06.05-.02.02-.03.03-.05.05-.01.01-.03.03-.04.04l2.31,2.42s.03-.03.05-.05c0,0,.02-.02.03-.02.03-.03.07-.06.1-.09,0,0,.01,0,.02-.01.04-.03.08-.06.12-.1,0,0,0,0,0,0,.21-.16.44-.3.68-.42h0s.09-.04.14-.07c0,0,0,0,.01,0,.04-.02.09-.04.13-.05,0,0,.01,0,.02,0,.04-.02.09-.03.13-.05,0,0,.02,0,.02,0,.04-.01.08-.03.13-.04,0,0,.02,0,.03,0,.04-.01.08-.02.13-.03,0,0,.02,0,.03,0,.04-.01.08-.02.13-.03,0,0,.02,0,.03,0h0ZM27.79,479.1v3.43c.33.02.65.09.96.19l.76-1.52c.13-.27.38-.39.59-.3.22.09.31.38.21.66l-.53,1.67c.16.11.32.23.46.37l2.31-2.42c-1.26-1.23-2.93-2-4.77-2.08h0ZM23.77,485.02s0-.02.01-.03c0-.02.02-.03.02-.05.02-.03.03-.07.05-.1,0-.02.02-.03.03-.05.02-.03.03-.06.05-.09,0-.02.02-.03.03-.05.02-.03.03-.06.05-.09.01-.02.02-.03.03-.05.02-.03.04-.06.06-.09.01-.02.02-.03.03-.05.02-.03.04-.06.06-.09.01-.02.02-.03.03-.05.02-.03.04-.06.06-.08.01-.01.02-.03.03-.04.02-.03.04-.06.07-.08,0,0,0-.01.01-.02l-2.31-2.42s-.03.03-.04.04c-.02.02-.03.04-.05.06-.02.02-.03.04-.05.06-.02.02-.03.04-.05.06-.02.02-.03.04-.05.06-.02.02-.03.04-.05.06-.02.02-.03.04-.05.06-.02.02-.03.04-.05.06-.01.02-.03.04-.04.06-.02.02-.03.04-.05.06-.01.02-.03.04-.04.06-.02.02-.03.04-.05.07-.01.02-.03.04-.04.06-.02.02-.03.04-.04.07-.01.02-.03.04-.04.06-.01.02-.03.05-.04.07-.01.02-.03.04-.04.06-.01.02-.03.05-.04.07-.01.02-.03.04-.04.06-.01.02-.03.05-.04.07-.01.02-.02.04-.04.06-.01.02-.03.05-.04.07-.01.02-.02.04-.03.06-.01.02-.03.05-.04.07-.01.02-.02.04-.03.06-.01.02-.03.05-.04.07-.01.02-.02.04-.03.06-.01.03-.03.05-.04.08-.01.02-.02.04-.03.06-.01.03-.02.05-.04.08,0,.02-.02.04-.03.06-.01.03-.02.05-.03.08,0,.02-.02.04-.03.07-.01.03-.02.05-.03.08,0,.02-.02.04-.03.07-.01.03-.02.05-.03.08,0,.02-.02.04-.02.07-.01.03-.02.05-.03.08,0,.02-.02.04-.02.06-.01.03-.02.06-.03.08,0,0,0,0,0,.01.31-.11.65-.17,1-.17.86,0,1.65.36,2.22.95h0ZM32.95,481.59l-2.31,2.42c.59.71.96,1.62,1.02,2.58h3.27c-.07-1.93-.81-3.68-1.98-5h0ZM29.14,483.21l-1.54,3.09c-.04.08-.12.14-.2.15-.3.05-.54.25-.66.54-.18.45.02.98.46,1.17.21.09.44.09.65,0s.37-.26.46-.48c.12-.29.08-.62-.1-.87-.05-.08-.07-.17-.04-.26l1.04-3.27s0,0,0,0l.16-.51-.23.45s0,0,0,0h0Z"/>
      <path class="cls-53" d="M26.15,493.32v2.07c0,.27-.26.5-.58.5h-3.58l-.24-2.37h0c-.02-.1.02-.2.09-.28,0,0,0-.01,0-.02l.31-.47c.04-.06.04-.14,0-.2l-.31-.46c-.04-.06-.12-.1-.2-.1h-.62c-.08,0-.16.04-.2.1l-.31.46c-.04.06-.04.14,0,.2l.31.47s0,.01,0,.02c.07.08.11.18.09.28h0l-.24,2.37h-3.59c-.32,0-.58-.22-.58-.5v-2.07c0-.69.48-1.31,1.19-1.59.11-.04.23-.07.35-.1l1.33-.41s0-.02,0-.03l.23-.5c.05-.1.19-.15.29-.08l.85.44.57.29.57-.29.84-.44c.11-.05.25-.02.3.08l.23.5s0,.02,0,.03l1.33.41c.12.03.24.06.35.1.71.27,1.19.89,1.19,1.59h0Z"/>
      <path class="cls-53" d="M23.63,486.99v.54c0,.14,0,.26-.03.39-.03.21-.08.41-.15.61-.15.42-.39.8-.7,1.13-.05.05-.1.1-.16.16l-.19.17c-.24.23-.58.36-.94.36h-.28c-.35,0-.7-.13-.94-.36l-.19-.17c-.06-.05-.11-.1-.16-.16-.21-.22-.38-.46-.52-.72-.17-.32-.29-.67-.34-1.03-.02-.13-.03-.25-.03-.37v-.54c0-.19.03-.37.09-.54.28-.85,1.19-1.43,2.21-1.43s1.93.6,2.21,1.44c.06.17.09.36.09.53h0Z"/>
    </g>
    <g id="landing_page-3" data-name="landing page">
      <g>
        <g>
          <path class="cls-53" d="M20.14,275.98v2.35c0,.31.25.56.57.56s.57-.25.57-.56v-2.35c0-.31-.25-.56-.57-.56s-.57.25-.57.56Z"/>
          <path class="cls-53" d="M29.77,275.98v2.35c0,.31.25.56.57.56s.57-.25.57-.56v-2.35c0-.31-.25-.56-.57-.56s-.57.25-.57.56Z"/>
        </g>
        <rect class="cls-53" x="17.22" y="277.16" width="17" height="15.27" rx="1" ry="1"/>
        <rect class="cls-18" x="18.07" y="280.35" width="15.3" height="11.25"/>
        <g>
          <circle class="cls-14" cx="25.72" cy="285.98" r="4.5"/>
          <polyline class="cls-14" points="23.46 286.55 25.72 286.55 25.72 283.03"/>
        </g>
      </g>
    </g>
    <g id="Layer_1-2" data-name="Layer 1-2">
      <g id="icons-2" data-name="icons">
        <g>
          <g id="Franstek-4" data-name="Franstek">
            <path class="cls-30" d="M35.43,243.4l-.89-.42c-.22-.11-.37-.36-.38-.61,0,0,0-.11-.02-.38v-.09c-.02-.11.13-.29.32-.41l.84-.53c.19-.11.31-.4.24-.63l-.5-1.52c-.09-.21-.34-.37-.57-.36l-.98.07c-.22.02-.51-.11-.61-.28-.11-.17-.32-.76-.22-.96l.46-.87c.11-.2.06-.51-.09-.66l-1.18-1.06c-.18-.13-.48-.16-.67-.02l-.81.55c-.19.13-.48.16-.66.06-.17-.09-.65-.51-.66-.73l-.03-.98c0-.22-.2-.46-.41-.53l-1.57-.32c-.22-.03-.5.11-.59.32l-.42.89c-.11.21-.36.37-.61.38,0,0-.11,0-.38.02h-.09c-.11.02-.29-.13-.41-.32l-.53-.84c-.11-.19-.4-.31-.63-.24l-1.52.5c-.22.09-.37.34-.36.56l.07.98c.02.22-.11.51-.28.61-.17.11-.75.32-.96.21l-.87-.46c-.2-.11-.51-.06-.66.09l-1.06,1.18c-.13.18-.16.48-.02.67l.55.81c.13.19.16.48.06.66-.09.17-.51.65-.73.66l-.98.03c-.22,0-.46.2-.53.41l-.33,1.58c-.03.22.11.5.32.59l.89.42c.21.09.37.36.38.61,0,0,0,.11.02.38v.09c.02.11-.13.29-.32.41l-.84.53c-.19.11-.31.4-.24.63l.5,1.52c.09.21.34.37.56.36l.98-.07c.22-.02.51.11.61.28.11.17.32.76.21.96l-.46.87c-.11.2-.06.51.09.66l1.18,1.06c.18.13.48.16.67.02l.81-.55c.19-.13.48-.16.66-.06.17.09.65.51.66.73l.03.98c0,.22.2.46.41.53l1.56.32c.22.03.5-.11.59-.32l.42-.89c.09-.22.36-.37.61-.38,0,0,.11,0,.38-.02h.09c.11-.02.29.13.41.32l.53.84c.11.19.4.31.63.24l1.52-.5c.22-.09.37-.34.36-.56l-.07-.98c-.02-.22.11-.51.28-.61.17-.11.76-.32.96-.21l.87.46c.2.11.51.06.66-.09l1.06-1.18c.13-.18.16-.48.02-.67l-.55-.81c-.13-.19-.16-.48-.06-.66s.51-.65.73-.66l.98-.03c.22,0,.46-.2.53-.41l.32-1.56c.03-.22-.11-.5-.32-.59l.02-.02h.02ZM25.75,249.5c-3.73,0-6.78-3.04-6.78-6.78s3.04-6.78,6.78-6.78,6.78,3.04,6.78,6.78-3.04,6.78-6.78,6.78Z"/>
          </g>
          <path class="cls-16" d="M22.47,239.05h7.25c-.42.48-.67.73-.73.76h-1.94c.26.22.44.5.54.81h2.07s.04,0,.04.02c-.46.5-.7.73-.71.73h-1.35c-.03.26-.2.55-.52.92-.41.36-.81.59-1.18.71-.71.24-1.37.36-2.01.36h0s.16.19.48.46l3.58,3.08v.13s0,.02-.04.02h-1.58c-2.84-2.36-4.26-3.53-4.26-3.54v-.73c.26.02.56.04.9.04,1.58,0,2.58-.36,2.96-1.1.06-.11.09-.22.09-.33h-4.3s-.03,0-.03-.02c.48-.5.72-.73.73-.73h3.43c-.19-.3-.57-.52-1.14-.67-.4-.09-.76-.13-1.09-.13h-1.92v-.03c.46-.5.7-.73.72-.73h0l.02-.02h0Z"/>
        </g>
      </g>
    </g>
    <rect class="cls-13" x="216.62" y="599.06" width="106.87" height="20.08"/>
    <text class="cls-19" transform="translate(222.86 612.62)"><tspan class="cls-38" x="0" y="0">T</tspan><tspan x="6.24" y="0">o</tspan><tspan class="cls-29" x="12.84" y="0">t</tspan><tspan x="16.49" y="0">al </tspan><tspan class="cls-50" x="28.42" y="0">R</tspan><tspan x="35.34" y="0">eco</tspan><tspan class="cls-37" x="54.63" y="0">r</tspan><tspan x="58.59" y="0">ds -&gt; 1</tspan></text>
    <line class="cls-5" x1="1366" y1="589.29" x2="188.79" y2="589.29"/>
    <g>
      <rect class="cls-13" x="727.35" y="599.06" width="20.08" height="20.08"/>
      <rect class="cls-9" x="807.35" y="599.06" width="20.08" height="20.08"/>
      <rect class="cls-13" x="807.35" y="599.06" width="20.08" height="20.08"/>
      <rect class="cls-6" x="787.28" y="599.06" width="20.08" height="20.08"/>
      <rect class="cls-6" x="747.43" y="599.06" width="39.85" height="20.08" transform="translate(1534.71 1218.19) rotate(180)"/>
      <text class="cls-19" transform="translate(753.38 612.51)"><tspan x="0" y="0">Page</tspan></text>
      <text class="cls-19" transform="translate(794.38 612.51)"><tspan x="0" y="0">1</tspan></text>
      <text class="cls-19" transform="translate(811.97 612.51)"><tspan x="0" y="0">-&gt;</tspan></text>
      <text class="cls-19" transform="translate(742.85 605.51) rotate(-180)"><tspan x="0" y="0">-&gt;</tspan></text>
    </g>
    <line class="cls-5" x1="188.79" y1="60" x2="188.79" y2="630"/>
    <rect class="cls-6" x="216.62" y="123.75" width="236.79" height="25.86" rx="12.93" ry="12.93"/>
    <rect class="cls-30" x="1262.67" y="124.35" width="71.35" height="24.71" rx="1" ry="1"/>
    <g id="Assets">
      <g id="search">
        <path class="cls-30" d="M237.72,140.02c.99-1.12,1.6-2.59,1.6-4.19,0-3.48-2.81-6.31-6.27-6.31s-6.27,2.82-6.27,6.31,2.81,6.3,6.27,6.3c1.32,0,2.55-.41,3.55-1.12l2.83,2.83,1.05-1.05-2.77-2.77h0ZM233.04,141.05c-2.87,0-5.2-2.34-5.2-5.23s2.33-5.22,5.2-5.22,5.2,2.34,5.2,5.23-2.33,5.23-5.2,5.23h0Z"/>
      </g>
    </g>
    <text class="cls-22" transform="translate(247.7 141.06)"><tspan x="0" y="0">S</tspan><tspan class="cls-42" x="8.34" y="0">e</tspan><tspan x="16.05" y="0">a</tspan><tspan class="cls-37" x="23.35" y="0">r</tspan><tspan x="28.02" y="0">ch...</tspan></text>
    <text class="cls-17" transform="translate(1286.37 140.65)"><tspan x="0" y="0">C</tspan><tspan class="cls-32" x="9.28" y="0">r</tspan><tspan class="cls-54" x="13.85" y="0">e</tspan><tspan class="cls-3" x="21.38" y="0">a</tspan><tspan class="cls-44" x="28.52" y="0">t</tspan><tspan class="cls-59" x="32.55" y="0">e</tspan></text>
    <g>
      <line class="cls-7" x1="1275.12" y1="131.28" x2="1275.12" y2="142.12"/>
      <line class="cls-7" x1="1280.54" y1="136.7" x2="1269.69" y2="136.7"/>
    </g>
  </g>
  <g id="Layer_3" data-name="Layer 3">
    <g>
      <rect class="cls-25" x="216.46" y="166.81" width="1117.31" height="31.81"/>
      <path class="cls-40" d="M1333.52,167.06v31.31H216.71v-31.31h1116.81M1334.02,166.56H216.21v32.31h1117.81v-32.31h0Z"/>
    </g>
    <path class="cls-40" d="M1333.52,198.85v31.83H216.71v-31.83h1116.81M1334.02,198.35H216.21v32.83h1117.81v-32.83h0Z"/>
    <text class="cls-21" transform="translate(224.57 187.35)"><tspan x="0" y="0">Empl</tspan><tspan class="cls-55" x="29.62" y="0">oy</tspan><tspan x="43.88" y="0">ee Name</tspan></text>
    <text class="cls-21" transform="translate(440.5 187.35)"><tspan x="0" y="0">Email</tspan></text>
    <text class="cls-21" transform="translate(622.97 187.36)"><tspan x="0" y="0">Con</tspan><tspan class="cls-51" x="24.4" y="0">t</tspan><tspan class="cls-57" x="28.62" y="0">act</tspan></text>
    <text class="cls-21" transform="translate(721.56 187.36)"><tspan x="0" y="0">Gender</tspan></text>
    <text class="cls-21" transform="translate(802.34 187.36)"><tspan x="0" y="0">Da</tspan><tspan class="cls-44" x="16.3" y="0">t</tspan><tspan x="20.33" y="0">e of Bi</tspan><tspan class="cls-39" x="58.6" y="0">r</tspan><tspan x="63.58" y="0">th</tspan></text>
    <text class="cls-21" transform="translate(902.01 187.36)"><tspan x="0" y="0">De</tspan><tspan class="cls-33" x="16.58" y="0">p</tspan><tspan x="24.48" y="0">a</tspan><tspan class="cls-39" x="31.61" y="0">r</tspan><tspan x="36.59" y="0">tment</tspan></text>
    <text class="cls-21" transform="translate(1058.38 187.36)"><tspan x="0" y="0">Designation</tspan></text>
    <text class="cls-21" transform="translate(1219.94 187.36)"><tspan x="0" y="0">Pho</tspan><tspan class="cls-44" x="23.24" y="0">t</tspan><tspan x="27.28" y="0">o</tspan></text>
    <text class="cls-24" transform="translate(224.57 218.35)"><tspan x="0" y="0">John Doe</tspan></text>
    <text class="cls-24" transform="translate(440.5 218.35)"><tspan x="0" y="0">john@idms.com</tspan></text>
    <text class="cls-24" transform="translate(608.97 218.36)"><tspan x="0" y="0">9234592352</tspan></text>
    <text class="cls-24" transform="translate(730.56 218.36)"><tspan x="0" y="0">Male</tspan></text>
    <text class="cls-24" transform="translate(802.34 218.36)"><tspan x="0" y="0">01/02/2000</tspan></text>
    <text class="cls-24" transform="translate(902.01 218.36)"><tspan x="0" y="0">P</tspan><tspan class="cls-32" x="8.11" y="0">r</tspan><tspan class="cls-59" x="12.69" y="0">oduct D</tspan><tspan class="cls-36" x="59.75" y="0">ev</tspan><tspan class="cls-59" x="73.8" y="0">elopment</tspan></text>
    <text class="cls-24" transform="translate(1058.38 218.36)"><tspan x="0" y="0">So</tspan><tspan class="cls-2" x="15.77" y="0">f</tspan><tspan class="cls-47" x="20.04" y="0">t</tspan><tspan class="cls-59" x="24.38" y="0">wa</tspan><tspan class="cls-32" x="41.91" y="0">r</tspan><tspan x="46.48" y="0">e D</tspan><tspan class="cls-55" x="66.63" y="0">ev</tspan><tspan x="80.68" y="0">eloper</tspan></text>
    <text class="cls-21" transform="translate(1282.26 187.36)"><tspan x="0" y="0">Action</tspan></text>
    <line class="cls-11" x1="430.79" y1="166.56" x2="430.79" y2="231.18"/>
    <line class="cls-11" x1="594.26" y1="166.56" x2="594.26" y2="231.18"/>
    <line class="cls-11" x1="700.85" y1="166.56" x2="700.85" y2="231.18"/>
    <line class="cls-11" x1="788.63" y1="166.56" x2="788.63" y2="231.18"/>
    <line class="cls-11" x1="891.3" y1="166.56" x2="891.3" y2="231.18"/>
    <line class="cls-11" x1="1047.67" y1="166.56" x2="1047.67" y2="231.18"/>
    <line class="cls-11" x1="1206.23" y1="166.56" x2="1206.23" y2="231.18"/>
    <line class="cls-11" x1="1268.55" y1="166.56" x2="1268.55" y2="231.18"/>
    <g id="Assets-2" data-name="Assets">
      <g id="action">
        <rect class="cls-12" x="1286.82" y="209.07" width="23.11" height="11.55" rx="1.56" ry="1.56"/>
        <circle class="cls-1" cx="1291.44" cy="214.85" r="1.92"/>
        <circle class="cls-1" cx="1298.38" cy="214.85" r="1.92"/>
        <circle class="cls-1" cx="1305.31" cy="214.85" r="1.92"/>
      </g>
    </g>
    <g id="s3">
      <path class="cls-34" d="M1227.82,215.08c0-.71.14-1.39.4-2.05.26-.62.62-1.19,1.1-1.67.46-.48,1.02-.87,1.63-1.13.64-.28,1.3-.42,2-.42h10.63c.56,0,1.08.11,1.6.33.5.22.93.51,1.3.9.37.39.67.84.87,1.33.42,1.01.42,2.17,0,3.18-.2.48-.48.9-.84,1.27-.36.37-.77.67-1.24.87-.48.22-.99.33-1.53.33h-8.54c-.77,0-1.5-.31-2.05-.87-1.08-1.1-1.08-3.04,0-4.15.54-.56,1.27-.87,2.05-.87h5.48c.34,0,.62.28.62.62s-.28.62-.62.62h-5.48c-.43,0-.84.17-1.15.5-.62.65-.62,1.78,0,2.42.31.33.71.5,1.15.5h8.55c.36,0,.71-.08,1.04-.22.33-.14.6-.34.85-.59.25-.25.43-.56.57-.88.29-.7.28-1.53,0-2.23-.14-.36-.36-.67-.62-.95-.26-.26-.56-.48-.9-.62-.34-.15-.71-.23-1.1-.23h-10.61c-.53,0-1.04.11-1.5.31-.46.2-.88.5-1.24.85-.36.37-.64.81-.84,1.29-.42.99-.42,2.15,0,3.15.2.48.48.91.84,1.29s.77.65,1.24.87c.48.2.99.31,1.5.31h10.38c.34,0,.62.28.62.62s-.28.62-.62.62h-10.4c-.7,0-1.36-.14-2-.42-.62-.26-1.16-.65-1.63-1.13s-.84-1.05-1.1-1.67c-.26-.65-.4-1.33-.4-2.05h-.02Z"/>
    </g>
  </g>
</svg>