<?xml version="1.0" encoding="UTF-8"?>
<svg id="Layer_4" data-name="Layer 4" xmlns="http://www.w3.org/2000/svg" xmlns:xlink="http://www.w3.org/1999/xlink" viewBox="0 0 1366 630">
  <defs>
    <style>
      .cls-1 {
        filter: url(#drop-shadow-1);
        stroke: #ff3296;
      }

      .cls-1, .cls-2, .cls-3 {
        fill: #fff;
      }

      .cls-1, .cls-3 {
        stroke-miterlimit: 10;
      }

      .cls-4 {
        fill: #5a5a5a;
      }

      .cls-5 {
        fill: url(#linear-gradient-2);
      }

      .cls-6 {
        fill: url(#linear-gradient-4);
      }

      .cls-7 {
        fill: url(#linear-gradient-3);
      }

      .cls-8 {
        fill: #4682c8;
      }

      .cls-9 {
        fill: #4678be;
      }

      .cls-10 {
        fill: #f5f5f5;
      }

      .cls-3 {
        stroke: #5a5a5a;
        stroke-width: .3px;
      }

      .cls-11 {
        fill: #ff3296;
      }

      .cls-12 {
        fill: url(#linear-gradient);
      }

      .cls-13 {
        fill: #787878;
      }
    </style>
    <filter id="drop-shadow-1" x="448" y="98" width="470" height="434" filterUnits="userSpaceOnUse">
      <feOffset dx="0" dy="0"/>
      <feGaussianBlur result="blur" stdDeviation="3"/>
      <feFlood flood-color="#000" flood-opacity=".2"/>
      <feComposite in2="blur" operator="in"/>
      <feComposite in="SourceGraphic"/>
    </filter>
    <linearGradient id="linear-gradient" x1="606.75" y1="130.77" x2="606.75" y2="173.09" gradientUnits="userSpaceOnUse">
      <stop offset="0" stop-color="#f0a"/>
      <stop offset=".3" stop-color="#fc00ac"/>
      <stop offset=".48" stop-color="#f400b2"/>
      <stop offset=".63" stop-color="#e500be"/>
      <stop offset=".76" stop-color="#d100ce"/>
      <stop offset=".88" stop-color="#b700e3"/>
      <stop offset=".99" stop-color="#9700fd"/>
      <stop offset="1" stop-color="#9600ff"/>
    </linearGradient>
    <linearGradient id="linear-gradient-2" x1="639.26" y1="130.77" x2="639.26" y2="173.09" xlink:href="#linear-gradient"/>
    <linearGradient id="linear-gradient-3" x1="692.46" y1="130.77" x2="692.46" y2="173.09" xlink:href="#linear-gradient"/>
    <linearGradient id="linear-gradient-4" x1="744.77" y1="130.77" x2="744.77" y2="173.09" xlink:href="#linear-gradient"/>
  </defs>
  <rect class="cls-10" width="1366" height="630"/>
  <polygon class="cls-9" points="1366 254.47 683 332.23 0 254.48 0 0 1366 0 1366 254.47"/>
  <rect class="cls-1" x="458" y="107.69" width="450" height="414.61" rx="4" ry="4"/>
  <g>
    <g>
      <path class="cls-8" d="M496.57,249.38v-6.39h1.3v6.29c0,1.39,1.02,2.4,2.69,2.4s2.67-1.01,2.67-2.4v-6.29h1.3v6.39c0,2-1.57,3.45-3.97,3.45s-3.99-1.46-3.99-3.45Z"/>
      <path class="cls-8" d="M506.5,250.91l1.17-.27c.22.8.84,1.16,1.76,1.16,1.07,0,1.75-.5,1.75-1.1,0-.5-.37-.83-1.12-1l-1.27-.29c-1.39-.31-2.05-.96-2.05-1.98,0-1.25,1.2-2.12,2.83-2.12s2.4.73,2.75,1.75l-1.11.27c-.21-.52-.64-1.03-1.63-1.03-.91,0-1.59.45-1.59,1.05,0,.54.39.84,1.29,1.04l1.16.26c1.39.31,2.04.97,2.04,1.96,0,1.27-1.22,2.2-3.01,2.2-1.57,0-2.67-.66-2.94-1.92l-.03.02Z"/>
      <path class="cls-8" d="M513.86,249.1c0-2.23,1.35-3.78,3.44-3.78,1.62,0,3.33.95,3.33,3.63v.49h-5.52c.06,1.52.99,2.35,2.34,2.35.9,0,1.58-.38,1.87-1.12l1.19.31c-.36,1.1-1.5,1.85-3.06,1.85-2.21,0-3.58-1.5-3.58-3.73h-.01ZM519.38,248.45c-.12-1.23-.82-2.09-2.08-2.09s-2.11.98-2.19,2.09h4.27Z"/>
      <path class="cls-8" d="M522.39,245.41h1.19v1.12h.08c.28-.73,1.07-1.22,1.98-1.22.18,0,.48,0,.62.02v1.18c-.08,0-.41-.06-.74-.06-1.1,0-1.91.71-1.91,1.69v4.55h-1.23v-7.27h0Z"/>
      <path class="cls-8" d="M531.75,242.99h1.53l4.14,6.19c.27.41.74,1.15,1.2,2.03-.08-.94-.09-1.76-.09-2.28v-5.94h1.3v9.69h-1.54l-3.69-5.51c-.46-.7-.85-1.35-1.65-2.69.05,1.24.1,2.21.1,2.68v5.53h-1.31v-9.69h.01Z"/>
      <path class="cls-8" d="M541.68,250.61c0-1.66,1.56-1.97,2.97-2.14,1.36-.16,1.96-.12,1.96-.66v-.04c0-.9-.54-1.42-1.6-1.42s-1.7.56-1.93,1.07l-1.18-.37c.59-1.32,1.9-1.72,3.08-1.72,1.03,0,2.86.3,2.86,2.57v4.79h-1.21v-.99h-.08c-.26.51-.98,1.16-2.27,1.16-1.45,0-2.6-.81-2.6-2.24h0ZM546.62,250.05v-1.01c-.21.23-1.54.36-2.02.42-.9.11-1.68.38-1.68,1.21,0,.75.66,1.14,1.58,1.14,1.36,0,2.12-.87,2.12-1.76Z"/>
      <path class="cls-8" d="M550.01,245.41h1.2v1.33c.38-.98,1.24-1.46,2.15-1.46,1,0,1.67.58,1.95,1.48.36-.92,1.3-1.48,2.41-1.48,1.33,0,2.41.81,2.41,2.5v4.9h-1.23v-4.87c0-1.05-.72-1.46-1.54-1.46-1.03,0-1.66.67-1.66,1.59v4.75h-1.23v-4.99c0-.81-.64-1.35-1.5-1.35s-1.71.6-1.71,1.75v4.58h-1.23v-7.27h-.02Z"/>
      <path class="cls-8" d="M561.9,249.1c0-2.23,1.35-3.78,3.44-3.78,1.62,0,3.33.95,3.33,3.63v.49h-5.52c.06,1.52.99,2.35,2.34,2.35.9,0,1.58-.38,1.87-1.12l1.19.31c-.36,1.1-1.5,1.85-3.06,1.85-2.21,0-3.58-1.5-3.58-3.73h-.01ZM567.42,248.45c-.12-1.23-.82-2.09-2.08-2.09s-2.11.98-2.19,2.09h4.27Z"/>
    </g>
    <rect class="cls-3" x="495.34" y="261.86" width="375.32" height="35" rx="2" ry="2"/>
    <g>
      <path class="cls-13" d="M506.69,284.6v-9.68h5.95v.82h-4.98v3.57h4.66v.82h-4.66v3.63h5.07v.82h-6.04v.02Z"/>
      <path class="cls-13" d="M515.77,280.08v4.53h-.93v-7.26h.9v1.34c.24-.5.56-.87.98-1.09.42-.23.89-.34,1.41-.34.77,0,1.4.23,1.89.69.48.46.72,1.12.72,1.98v4.7h-.92v-4.63c0-.59-.18-1.06-.53-1.41s-.82-.52-1.41-.52-1.1.18-1.51.55c-.4.36-.6.86-.6,1.48v-.02Z"/>
      <path class="cls-13" d="M525.66,277.34v.77h-1.57v4.78c0,.73.34,1.06,1.03.99.06,0,.14,0,.24-.02s.18-.03.26-.05l.19.76c-.2.06-.43.09-.7.1-.61.04-1.08-.1-1.43-.41s-.52-.75-.52-1.32v-4.84h-1.13v-.77h1.13v-1.73h.93v1.73h1.57Z"/>
      <path class="cls-13" d="M530.24,284.76c-.72,0-1.33-.16-1.86-.48-.52-.32-.93-.76-1.21-1.32s-.43-1.21-.43-1.94.14-1.38.42-1.95c.28-.57.67-1.01,1.18-1.34s1.09-.49,1.75-.49c.56,0,1.08.13,1.58.39s.9.66,1.21,1.19.46,1.21.46,2.03v.38h-5.67c.02.83.26,1.49.72,1.98s1.08.74,1.85.74c.53,0,.97-.12,1.31-.35s.58-.51.72-.83l.88.27c-.17.45-.51.85-1.02,1.19-.5.34-1.14.51-1.91.51l.02.02ZM527.68,280.48h4.73c-.05-.71-.28-1.29-.68-1.75s-.95-.69-1.63-.69c-.46,0-.87.11-1.22.33s-.63.52-.84.89c-.21.37-.33.78-.36,1.22Z"/>
      <path class="cls-13" d="M535.26,284.6v-7.26h.9v1.13h.07c.15-.37.42-.67.8-.89s.81-.33,1.28-.33h.48v.88s-.1-.01-.21-.03c-.1-.01-.22-.02-.34-.02-.59,0-1.08.17-1.47.52s-.58.79-.58,1.33v4.66h-.93Z"/>
      <path class="cls-13" d="M548.21,284.75c-.77,0-1.44-.15-2.02-.44s-1.04-.7-1.36-1.22c-.33-.52-.49-1.11-.49-1.77v-6.39h.97v6.33c0,.51.12.96.36,1.36s.58.71,1.02.94.94.34,1.53.34,1.09-.11,1.53-.34.77-.54,1.01-.94.36-.85.36-1.36v-6.33h.97v6.39c0,.66-.16,1.25-.49,1.77s-.78.92-1.36,1.22-1.25.44-2.02.44h-.01Z"/>
      <path class="cls-13" d="M556.96,284.76c-.75,0-1.37-.16-1.86-.48s-.8-.79-.94-1.4l.89-.2c.11.44.33.76.65.98.33.21.74.32,1.25.32.58,0,1.04-.12,1.39-.37.35-.25.52-.55.52-.92,0-.59-.41-.98-1.24-1.17l-1.24-.29c-1.31-.3-1.96-.94-1.96-1.93,0-.41.12-.76.35-1.07s.55-.55.95-.72.86-.26,1.38-.26c.72,0,1.29.15,1.71.46s.72.73.9,1.25l-.85.21c-.12-.33-.32-.61-.59-.83-.28-.22-.66-.33-1.17-.33s-.92.12-1.25.35-.49.53-.49.89c0,.6.46,1,1.37,1.21l1.17.27c1.29.29,1.93.93,1.93,1.91,0,.42-.12.78-.36,1.1s-.58.57-1.01.75-.93.27-1.49.27h-.01Z"/>
      <path class="cls-13" d="M564.85,284.76c-.72,0-1.33-.16-1.86-.48-.52-.32-.93-.76-1.21-1.32s-.43-1.21-.43-1.94.14-1.38.42-1.95c.28-.57.67-1.01,1.18-1.34s1.09-.49,1.75-.49c.56,0,1.08.13,1.58.39s.9.66,1.21,1.19.46,1.21.46,2.03v.38h-5.67c.02.83.26,1.49.72,1.98s1.08.74,1.85.74c.53,0,.97-.12,1.31-.35s.58-.51.72-.83l.88.27c-.17.45-.51.85-1.02,1.19-.5.34-1.14.51-1.91.51l.02.02ZM562.29,280.48h4.73c-.05-.71-.28-1.29-.68-1.75s-.95-.69-1.63-.69c-.46,0-.87.11-1.22.33s-.63.52-.84.89c-.21.37-.33.78-.36,1.22Z"/>
      <path class="cls-13" d="M569.87,284.6v-7.26h.9v1.13h.07c.15-.37.42-.67.8-.89s.81-.33,1.28-.33h.48v.88s-.1-.01-.21-.03c-.1-.01-.22-.02-.34-.02-.59,0-1.08.17-1.47.52s-.58.79-.58,1.33v4.66h-.93Z"/>
      <path class="cls-13" d="M579.01,284.6v-9.68h1.12l4.64,6.57c.17.24.36.54.59.88s.45.72.68,1.13c-.03-.42-.05-.82-.05-1.19s-.01-.7-.01-.98v-6.4h.97v9.68h-1.13l-4.33-6.12c-.24-.33-.47-.68-.7-1.05s-.52-.82-.88-1.38c.02.52.04.99.06,1.41s.02.76.02,1.02v6.12h-.98Z"/>
      <path class="cls-13" d="M591.47,284.76c-.46,0-.89-.09-1.27-.26s-.68-.42-.91-.74-.34-.72-.34-1.19.13-.86.38-1.14.6-.5,1.04-.64.95-.25,1.52-.31c.63-.07,1.12-.14,1.47-.2s.52-.23.52-.51v-.17c0-.48-.15-.87-.46-1.15s-.75-.42-1.33-.42-.99.11-1.33.34-.58.49-.71.8l-.89-.29c.17-.39.41-.71.71-.95s.65-.41,1.03-.52.77-.17,1.17-.17c.3,0,.61.04.93.11s.62.2.89.38.49.43.66.74.25.71.25,1.19v4.93h-.91v-1.15h-.07c-.17.33-.45.64-.84.91s-.9.41-1.52.41h.01ZM591.61,283.98c.46,0,.87-.1,1.21-.3.34-.2.61-.46.79-.79.19-.33.28-.69.28-1.08v-1.03c-.09.08-.25.15-.49.2-.24.06-.5.11-.78.14-.28.04-.52.07-.72.09-.64.07-1.14.22-1.49.43s-.53.53-.53.96.16.77.49,1.01.74.36,1.23.36h.01Z"/>
      <path class="cls-13" d="M597.15,284.6v-7.26h.9v1.34c.2-.5.5-.87.9-1.11s.83-.36,1.29-.36c.51,0,.94.14,1.29.42s.59.65.72,1.12c.18-.48.49-.86.92-1.13.43-.27.92-.41,1.48-.41.68,0,1.25.21,1.7.64s.68,1.04.68,1.86v4.89h-.92v-4.86c0-.58-.16-1.02-.49-1.29-.33-.28-.73-.42-1.21-.42-.55,0-1,.16-1.34.49s-.51.76-.51,1.3v4.79h-.92v-4.94c0-.5-.15-.9-.46-1.19s-.71-.44-1.19-.44-.95.17-1.33.5-.56.8-.56,1.4v4.67h-.95Z"/>
      <path class="cls-13" d="M612.47,284.76c-.72,0-1.33-.16-1.86-.48-.52-.32-.93-.76-1.21-1.32s-.43-1.21-.43-1.94.14-1.38.42-1.95c.28-.57.67-1.01,1.18-1.34s1.09-.49,1.75-.49c.56,0,1.08.13,1.58.39s.9.66,1.21,1.19.46,1.21.46,2.03v.38h-5.67c.02.83.26,1.49.72,1.98s1.08.74,1.85.74c.53,0,.97-.12,1.31-.35s.58-.51.72-.83l.88.27c-.17.45-.51.85-1.02,1.19-.5.34-1.14.51-1.91.51l.02.02ZM609.91,280.48h4.73c-.05-.71-.28-1.29-.68-1.75s-.95-.69-1.63-.69c-.46,0-.87.11-1.22.33s-.63.52-.84.89c-.21.37-.33.78-.36,1.22Z"/>
    </g>
  </g>
  <g>
    <path class="cls-8" d="M496.57,323.44h6.21v1.09h-4.91v3.16h4.57v1.09h-4.57v3.25h4.97v1.09h-6.27v-9.69h0Z"/>
    <path class="cls-8" d="M506.07,333.12h-1.23v-7.27h1.18v1.35c.5-1.03,1.32-1.44,2.34-1.44,1.54,0,2.58.9,2.58,2.74v4.62h-1.23v-4.52c0-1.12-.66-1.79-1.72-1.79s-1.93.71-1.93,1.95v4.35h.01Z"/>
    <path class="cls-8" d="M516.12,326.86h-1.57v4.38c0,.65.25.94.9.94.16,0,.42-.04.63-.08l.25.99c-.25.08-.6.13-.92.13-1.32,0-2.1-.7-2.1-1.88v-4.47h-1.15v-1h1.15v-1.73h1.23v1.73h1.57v1h0Z"/>
    <path class="cls-8" d="M517.18,329.55c0-2.23,1.35-3.78,3.44-3.78,1.62,0,3.33.95,3.33,3.63v.49h-5.52c.06,1.52.99,2.35,2.34,2.35.9,0,1.58-.38,1.87-1.12l1.19.31c-.36,1.1-1.5,1.85-3.06,1.85-2.21,0-3.58-1.5-3.58-3.73h-.01ZM522.7,328.9c-.12-1.23-.82-2.09-2.08-2.09s-2.11.98-2.19,2.09h4.27Z"/>
    <path class="cls-8" d="M525.71,325.85h1.19v1.12h.08c.28-.73,1.07-1.22,1.98-1.22.18,0,.48.01.62.02v1.18c-.08-.01-.41-.06-.74-.06-1.1,0-1.91.71-1.91,1.69v4.55h-1.23v-7.27h0Z"/>
    <path class="cls-8" d="M535.07,323.44h3.49c2.38,0,3.47,1.36,3.47,3.08s-1.09,3.1-3.47,3.1h-2.19v3.5h-1.3v-9.69h0ZM538.5,328.53c1.61,0,2.24-.86,2.24-2.02s-.62-2-2.25-2h-2.12v4.01h2.13Z"/>
    <path class="cls-8" d="M543.4,331.05c0-1.66,1.56-1.97,2.97-2.14,1.36-.16,1.96-.12,1.96-.66v-.04c0-.9-.54-1.42-1.6-1.42s-1.7.56-1.93,1.07l-1.18-.37c.59-1.32,1.9-1.72,3.08-1.72,1.03,0,2.86.3,2.86,2.57v4.79h-1.21v-.99h-.08c-.26.51-.98,1.16-2.27,1.16-1.45,0-2.6-.81-2.6-2.24h0ZM548.33,330.5v-1.01c-.21.23-1.54.36-2.02.42-.9.11-1.68.38-1.68,1.21,0,.75.66,1.14,1.58,1.14,1.36,0,2.12-.87,2.12-1.76Z"/>
    <path class="cls-8" d="M551.38,331.36l1.17-.27c.22.8.84,1.16,1.76,1.16,1.07,0,1.75-.5,1.75-1.1,0-.5-.37-.83-1.12-1l-1.27-.29c-1.39-.31-2.05-.96-2.05-1.98,0-1.25,1.2-2.12,2.83-2.12s2.4.73,2.75,1.75l-1.11.27c-.21-.52-.64-1.03-1.63-1.03-.91,0-1.59.45-1.59,1.05,0,.54.39.84,1.29,1.04l1.16.26c1.39.31,2.04.97,2.04,1.96,0,1.27-1.22,2.2-3.01,2.2-1.57,0-2.67-.66-2.94-1.92l-.03.02Z"/>
    <path class="cls-8" d="M558.77,331.36l1.17-.27c.22.8.84,1.16,1.76,1.16,1.07,0,1.75-.5,1.75-1.1,0-.5-.37-.83-1.12-1l-1.27-.29c-1.39-.31-2.05-.96-2.05-1.98,0-1.25,1.2-2.12,2.83-2.12s2.4.73,2.75,1.75l-1.11.27c-.21-.52-.64-1.03-1.63-1.03-.91,0-1.59.45-1.59,1.05,0,.54.39.84,1.29,1.04l1.16.26c1.39.31,2.04.97,2.04,1.96,0,1.27-1.22,2.2-3.01,2.2-1.57,0-2.67-.66-2.94-1.92l-.03.02Z"/>
    <path class="cls-8" d="M565.9,325.85h1.31l.93,3.17c.22.76.48,1.68.73,2.84.25-1.11.49-2.04.72-2.84l.92-3.17h1.31l.9,3.17c.22.77.46,1.7.7,2.82.25-1.11.51-2.03.74-2.82l.93-3.17h1.31l-2.32,7.27h-1.22l-.99-3.29c-.25-.83-.49-1.72-.72-2.65-.23.92-.47,1.83-.72,2.65l-.99,3.29h-1.22l-2.32-7.27h0Z"/>
    <path class="cls-8" d="M577.34,329.53c0-2.28,1.4-3.77,3.48-3.77s3.49,1.5,3.49,3.77-1.41,3.74-3.49,3.74-3.48-1.5-3.48-3.74ZM583.07,329.53c0-1.44-.7-2.72-2.25-2.72s-2.23,1.27-2.23,2.72.7,2.7,2.23,2.7,2.25-1.27,2.25-2.7Z"/>
    <path class="cls-8" d="M586.1,325.85h1.19v1.12h.08c.28-.73,1.07-1.22,1.98-1.22.18,0,.48.01.62.02v1.18c-.08-.01-.41-.06-.74-.06-1.1,0-1.91.71-1.91,1.69v4.55h-1.23v-7.27h0Z"/>
    <path class="cls-8" d="M590.77,329.51c0-2.3,1.33-3.74,3.24-3.74,1.49,0,1.96.87,2.21,1.25h.1v-3.58h1.23v9.69h-1.19v-1.12h-.14c-.25.4-.77,1.28-2.22,1.28-1.91,0-3.23-1.46-3.23-3.77h0ZM596.34,329.49c0-1.61-.74-2.68-2.15-2.68s-2.17,1.18-2.17,2.68.74,2.74,2.17,2.74,2.15-1.12,2.15-2.74Z"/>
  </g>
  <rect class="cls-3" x="495.34" y="342.3" width="375.32" height="35" rx="2" ry="2"/>
  <g>
    <path class="cls-13" d="M506.69,365.05v-9.68h5.95v.82h-4.98v3.57h4.66v.82h-4.66v3.63h5.07v.82h-6.04v.02Z"/>
    <path class="cls-13" d="M515.77,360.52v4.53h-.93v-7.26h.9v1.34c.24-.5.56-.87.98-1.09s.89-.34,1.41-.34c.77,0,1.4.23,1.89.68.48.46.72,1.12.72,1.98v4.7h-.92v-4.63c0-.59-.18-1.06-.53-1.41-.35-.34-.82-.52-1.41-.52s-1.1.18-1.51.55-.6.86-.6,1.48h0Z"/>
    <path class="cls-13" d="M525.66,357.79v.77h-1.57v4.78c0,.73.34,1.06,1.03.99.06,0,.14,0,.24-.02.09-.02.18-.03.26-.05l.19.76c-.2.06-.43.09-.7.1-.61.04-1.08-.1-1.43-.41s-.52-.75-.52-1.32v-4.84h-1.13v-.77h1.13v-1.73h.93v1.73h1.57Z"/>
    <path class="cls-13" d="M530.24,365.2c-.72,0-1.33-.16-1.86-.48s-.93-.76-1.21-1.32-.43-1.21-.43-1.94.14-1.38.42-1.95c.28-.57.67-1.01,1.18-1.34.5-.33,1.09-.49,1.75-.49.56,0,1.08.13,1.58.39s.9.66,1.21,1.19.46,1.21.46,2.03v.38h-5.67c.02.83.26,1.49.72,1.98.46.5,1.08.74,1.85.74.53,0,.97-.12,1.31-.35s.58-.51.72-.83l.88.27c-.17.45-.51.85-1.02,1.19-.5.34-1.14.51-1.91.51l.02.02ZM527.68,360.92h4.73c-.05-.71-.28-1.29-.68-1.75s-.95-.69-1.63-.69c-.46,0-.87.11-1.22.33s-.63.52-.84.89-.33.78-.36,1.22Z"/>
    <path class="cls-13" d="M535.26,365.05v-7.26h.9v1.13h.07c.15-.37.42-.67.8-.89s.81-.33,1.28-.33h.48v.88s-.1-.01-.21-.03-.22-.02-.34-.02c-.59,0-1.08.17-1.47.52s-.58.79-.58,1.33v4.66h-.93Z"/>
    <path class="cls-13" d="M544.4,365.05v-9.68h3.32c.72,0,1.32.13,1.81.4.49.26.86.62,1.1,1.08s.37.96.37,1.52-.12,1.08-.37,1.54-.62.81-1.1,1.08c-.49.26-1.09.4-1.8.4h-2.36v3.68h-.97v-.02ZM545.37,360.55h2.32c.79,0,1.38-.21,1.77-.62s.59-.93.59-1.57-.2-1.14-.59-1.55-.98-.62-1.78-.62h-2.31v4.35h0Z"/>
    <path class="cls-13" d="M555.02,365.21c-.46,0-.89-.08-1.27-.26s-.68-.42-.91-.74c-.23-.32-.34-.72-.34-1.19s.13-.86.38-1.14c.25-.28.6-.5,1.04-.64s.95-.25,1.52-.31c.63-.07,1.12-.14,1.47-.2s.52-.23.52-.51v-.17c0-.48-.15-.87-.46-1.15s-.75-.42-1.33-.42-.99.11-1.33.34-.58.49-.71.79l-.89-.29c.17-.39.41-.71.71-.95s.65-.41,1.03-.52.77-.17,1.17-.17c.3,0,.61.04.93.11.32.08.62.2.89.38s.49.43.66.74.25.71.25,1.19v4.93h-.91v-1.15h-.07c-.17.33-.45.64-.84.91s-.9.41-1.52.41h.01ZM555.16,364.42c.46,0,.87-.1,1.21-.3.34-.2.61-.46.79-.79.19-.33.28-.69.28-1.08v-1.03c-.09.08-.25.15-.49.21s-.5.11-.78.14-.52.07-.72.09c-.64.07-1.14.22-1.49.43s-.53.53-.53.96.16.77.49,1.01.74.36,1.23.36h.01Z"/>
    <path class="cls-13" d="M563.14,365.2c-.75,0-1.37-.16-1.86-.48s-.8-.79-.94-1.4l.89-.2c.11.44.33.76.65.98s.74.32,1.25.32c.58,0,1.04-.12,1.39-.37s.52-.55.52-.92c0-.59-.41-.98-1.24-1.17l-1.24-.29c-1.31-.3-1.96-.94-1.96-1.93,0-.41.12-.76.35-1.07s.55-.55.95-.72.86-.26,1.38-.26c.72,0,1.29.15,1.71.46s.72.73.9,1.25l-.85.21c-.12-.33-.32-.61-.59-.83-.28-.22-.66-.33-1.17-.33s-.92.12-1.25.35-.49.53-.49.89c0,.6.46,1,1.37,1.21l1.17.27c1.29.29,1.93.93,1.93,1.91,0,.42-.12.78-.36,1.1s-.58.57-1.01.75-.93.27-1.49.27h-.01Z"/>
    <path class="cls-13" d="M570.36,365.2c-.75,0-1.37-.16-1.86-.48s-.8-.79-.94-1.4l.89-.2c.11.44.33.76.65.98s.74.32,1.25.32c.58,0,1.04-.12,1.39-.37s.52-.55.52-.92c0-.59-.41-.98-1.24-1.17l-1.24-.29c-1.31-.3-1.96-.94-1.96-1.93,0-.41.12-.76.35-1.07s.55-.55.95-.72.86-.26,1.38-.26c.72,0,1.29.15,1.71.46s.72.73.9,1.25l-.85.21c-.12-.33-.32-.61-.59-.83-.28-.22-.66-.33-1.17-.33s-.92.12-1.25.35-.49.53-.49.89c0,.6.46,1,1.37,1.21l1.17.27c1.29.29,1.93.93,1.93,1.91,0,.42-.12.78-.36,1.1s-.58.57-1.01.75-.93.27-1.49.27h-.01Z"/>
    <path class="cls-13" d="M576.8,365.05l-2.29-7.26h.98l1.18,3.91c.1.35.21.72.31,1.12s.22.84.33,1.32c.11-.46.23-.9.33-1.3s.22-.78.33-1.14l1.23-3.91h1.01l1.22,3.91c.1.35.21.72.32,1.12s.22.83.33,1.31c.11-.47.22-.9.33-1.3s.22-.78.32-1.13l1.17-3.91h.98l-2.29,7.26h-.96l-1.31-4.06c-.11-.35-.22-.72-.32-1.08-.1-.37-.21-.74-.31-1.13-.1.39-.21.76-.31,1.13s-.21.73-.31,1.08l-1.31,4.06h-.96Z"/>
    <path class="cls-13" d="M589.29,365.2c-.67,0-1.25-.16-1.76-.48s-.9-.76-1.19-1.32-.43-1.21-.43-1.95.14-1.4.43-1.96.68-1.01,1.19-1.32c.51-.32,1.09-.48,1.76-.48s1.25.16,1.75.48c.51.32.91.76,1.19,1.32.29.57.43,1.22.43,1.96s-.14,1.39-.43,1.95-.68,1-1.19,1.32-1.09.48-1.75.48ZM589.29,364.4c.52,0,.97-.13,1.33-.4s.64-.63.83-1.07c.19-.45.29-.94.29-1.47s-.1-1.04-.29-1.48-.47-.81-.83-1.08-.81-.41-1.33-.41-.96.13-1.32.41-.64.63-.83,1.08-.29.94-.29,1.48.09,1.03.28,1.47c.19.45.47.8.83,1.07s.81.4,1.33.4h0Z"/>
    <path class="cls-13" d="M594.61,365.05v-7.26h.9v1.13h.07c.15-.37.42-.67.8-.89s.81-.33,1.28-.33h.48v.88s-.1-.01-.21-.03-.22-.02-.34-.02c-.59,0-1.08.17-1.47.52s-.58.79-.58,1.33v4.66h-.93Z"/>
    <path class="cls-13" d="M602.14,365.2c-.62,0-1.17-.16-1.64-.47-.47-.31-.83-.75-1.1-1.32-.26-.57-.39-1.22-.39-1.98s.13-1.4.4-1.96.63-1,1.1-1.31,1.02-.47,1.64-.47c.46,0,.85.08,1.16.24s.56.35.75.58.33.45.43.67h.08v-3.81h.92v9.68h-.9v-1.36h-.1c-.1.23-.25.46-.44.69s-.44.43-.76.59-.7.24-1.16.24h.01ZM602.27,364.4c.49,0,.91-.13,1.25-.38.34-.26.61-.61.79-1.06s.27-.96.27-1.54-.09-1.08-.27-1.53c-.18-.44-.44-.79-.79-1.04-.34-.25-.76-.38-1.25-.38s-.92.13-1.27.39-.6.61-.78,1.05c-.18.44-.27.94-.27,1.5s.09,1.06.27,1.51.44.8.79,1.07c.34.26.76.4,1.26.4h0Z"/>
  </g>
  <rect class="cls-9" x="495.34" y="448.3" width="375.32" height="41.7" rx="2.41" ry="2.41"/>
  <g>
    <path class="cls-2" d="M664.04,461.96h2v10.8h5.93v1.64h-7.94v-12.44h.01Z"/>
    <path class="cls-2" d="M673.61,469.78c0-2.91,1.82-4.83,4.59-4.83s4.6,1.93,4.6,4.83-1.83,4.81-4.6,4.81-4.59-1.93-4.59-4.81ZM680.83,469.78c0-1.79-.84-3.28-2.64-3.28s-2.62,1.49-2.62,3.28.84,3.25,2.62,3.25,2.64-1.49,2.64-3.25Z"/>
    <path class="cls-2" d="M684.88,476.06l1.62-.73c.35.53.97,1.28,2.55,1.28,1.49,0,2.52-.65,2.52-2.09v-1.82h-.17c-.34.61-1.02,1.55-2.81,1.55-2.31,0-4.1-1.58-4.1-4.56s1.77-4.75,4.13-4.75c1.81,0,2.5,1.05,2.85,1.64h.14v-1.52h1.89v9.46c0,2.45-1.92,3.56-4.44,3.56-2.28,0-3.62-.9-4.18-2.03h0ZM691.57,469.67c0-1.87-.88-3.16-2.54-3.16s-2.58,1.39-2.58,3.16.89,3.06,2.58,3.06,2.54-1.14,2.54-3.06Z"/>
    <path class="cls-2" d="M695.85,462.55c0-.61.55-1.09,1.22-1.09s1.22.48,1.22,1.09-.55,1.08-1.22,1.08-1.22-.48-1.22-1.08ZM696.09,465.06h1.93v9.33h-1.93v-9.33Z"/>
    <path class="cls-2" d="M702.56,474.4h-1.93v-9.33h1.85v1.79c.62-1.32,1.65-1.91,3.04-1.91,2,0,3.34,1.22,3.34,3.52v5.93h-1.93v-5.7c0-1.34-.79-2.14-2.07-2.14s-2.29.84-2.29,2.32v5.53h-.01Z"/>
  </g>
  <g>
    <path class="cls-4" d="M521.75,408.55c-1.04,0-1.88-.24-2.5-.72s-.96-1.11-1.02-1.89h.99c.05.58.32,1.02.8,1.32s1.06.45,1.73.45c.51,0,.95-.08,1.34-.24s.7-.38.92-.67.33-.62.33-1.01c0-.49-.19-.86-.58-1.11-.39-.26-.9-.47-1.54-.66l-1.2-.33c-.81-.23-1.44-.54-1.87-.95-.44-.4-.66-.91-.66-1.53,0-.52.15-.98.44-1.38s.69-.71,1.2-.93,1.07-.33,1.7-.33,1.21.11,1.7.34c.49.22.88.53,1.16.92.28.39.44.83.46,1.32h-.95c-.06-.54-.31-.96-.75-1.27s-.99-.47-1.65-.47-1.27.17-1.71.5c-.44.34-.66.76-.66,1.28,0,.33.1.61.3.83s.45.41.76.55c.31.14.63.26.95.35l1.07.29c.44.12.87.28,1.3.48s.78.47,1.06.81c.28.34.42.77.42,1.31s-.14.99-.42,1.4c-.28.41-.69.74-1.22.98s-1.17.36-1.9.36h0Z"/>
    <path class="cls-4" d="M528.29,403.86v4.53h-.93v-9.68h.93v3.69c.24-.48.56-.83.97-1.05s.87-.33,1.38-.33c.77,0,1.4.23,1.89.68s.73,1.12.73,1.98v4.7h-.93v-4.63c0-.59-.18-1.06-.53-1.41-.35-.34-.82-.52-1.41-.52s-1.1.18-1.51.55c-.4.36-.6.86-.6,1.48h.01Z"/>
    <path class="cls-4" d="M538.58,408.54c-.67,0-1.25-.16-1.76-.48s-.9-.76-1.19-1.32-.43-1.21-.43-1.95.14-1.4.43-1.96c.29-.57.68-1.01,1.19-1.33s1.09-.48,1.76-.48,1.25.16,1.75.48.91.76,1.19,1.33c.29.56.43,1.22.43,1.96s-.14,1.38-.43,1.95c-.29.56-.68,1-1.19,1.32s-1.09.48-1.75.48ZM538.58,407.75c.52,0,.97-.13,1.33-.4.36-.27.64-.62.83-1.07s.29-.94.29-1.47-.1-1.04-.29-1.48-.47-.81-.83-1.08-.81-.41-1.33-.41-.96.13-1.32.41-.64.63-.83,1.08-.29.94-.29,1.48.09,1.03.28,1.47c.19.45.47.8.83,1.07.36.27.81.4,1.33.4h0Z"/>
    <path class="cls-4" d="M545.29,408.39l-2.29-7.26h.98l1.18,3.91c.1.35.21.72.31,1.12s.22.84.33,1.31c.11-.46.23-.89.33-1.29s.22-.78.33-1.14l1.23-3.91h1.01l1.22,3.91c.1.35.21.72.32,1.12s.22.83.33,1.31c.11-.47.22-.9.33-1.3s.22-.78.32-1.13l1.17-3.91h.98l-2.29,7.26h-.96l-1.31-4.06c-.11-.36-.22-.72-.32-1.08s-.21-.74-.31-1.13c-.1.39-.21.76-.31,1.13s-.21.73-.31,1.08l-1.31,4.06h-.96Z"/>
    <path class="cls-4" d="M559.17,408.39v-9.68h3.32c.72,0,1.32.13,1.81.4.49.26.86.62,1.1,1.08s.37.96.37,1.52-.12,1.08-.37,1.54-.62.81-1.1,1.07c-.49.26-1.09.4-1.8.4h-2.36v3.68h-.97ZM560.14,403.89h2.32c.79,0,1.38-.21,1.77-.62s.59-.93.59-1.57-.2-1.14-.59-1.55-.98-.62-1.78-.62h-2.31v4.35h0Z"/>
    <path class="cls-4" d="M569.79,408.55c-.46,0-.89-.08-1.27-.26-.38-.17-.68-.42-.91-.74-.23-.32-.34-.72-.34-1.19s.13-.86.38-1.14c.25-.28.6-.5,1.04-.64s.95-.25,1.52-.31c.63-.07,1.12-.14,1.47-.2s.52-.23.52-.51v-.17c0-.49-.15-.87-.46-1.15s-.75-.42-1.33-.42-.99.11-1.33.34-.58.49-.71.8l-.89-.29c.17-.39.41-.71.71-.95.31-.24.65-.41,1.03-.52s.77-.17,1.17-.17c.3,0,.61.04.93.11s.62.2.89.38.49.43.66.74.25.71.25,1.19v4.93h-.91v-1.15h-.07c-.17.33-.45.64-.84.91s-.9.41-1.52.41h.01ZM569.93,407.76c.46,0,.87-.1,1.21-.3s.61-.46.79-.79c.19-.33.28-.69.28-1.08v-1.03c-.09.08-.25.15-.49.2s-.5.11-.78.14c-.28.04-.52.07-.72.09-.64.07-1.14.22-1.49.43s-.53.53-.53.96.16.77.49,1.01c.33.24.74.36,1.23.36h.01Z"/>
    <path class="cls-4" d="M577.91,408.54c-.75,0-1.37-.16-1.86-.48s-.8-.79-.94-1.4l.89-.2c.11.44.33.76.65.98.33.21.74.32,1.25.32.58,0,1.04-.12,1.39-.37s.52-.55.52-.92c0-.59-.41-.98-1.24-1.17l-1.24-.29c-1.31-.3-1.96-.94-1.96-1.93,0-.41.12-.76.35-1.07s.55-.55.95-.72.86-.26,1.38-.26c.72,0,1.29.15,1.71.46s.72.73.9,1.25l-.85.21c-.12-.33-.32-.61-.59-.83s-.66-.33-1.17-.33-.92.12-1.25.35-.49.53-.49.89c0,.6.46,1,1.37,1.21l1.17.27c1.29.29,1.93.93,1.93,1.91,0,.42-.12.78-.36,1.1s-.58.57-1.01.75-.93.27-1.49.27h-.01Z"/>
    <path class="cls-4" d="M585.13,408.54c-.75,0-1.37-.16-1.86-.48s-.8-.79-.94-1.4l.89-.2c.11.44.33.76.65.98.33.21.74.32,1.25.32.58,0,1.04-.12,1.39-.37s.52-.55.52-.92c0-.59-.41-.98-1.24-1.17l-1.24-.29c-1.31-.3-1.96-.94-1.96-1.93,0-.41.12-.76.35-1.07s.55-.55.95-.72.86-.26,1.38-.26c.72,0,1.29.15,1.71.46s.72.73.9,1.25l-.85.21c-.12-.33-.32-.61-.59-.83s-.66-.33-1.17-.33-.92.12-1.25.35-.49.53-.49.89c0,.6.46,1,1.37,1.21l1.17.27c1.29.29,1.93.93,1.93,1.91,0,.42-.12.78-.36,1.1s-.58.57-1.01.75-.93.27-1.49.27h-.01Z"/>
    <path class="cls-4" d="M591.57,408.39l-2.29-7.26h.98l1.18,3.91c.1.35.21.72.31,1.12s.22.84.33,1.31c.11-.46.23-.89.33-1.29s.22-.78.33-1.14l1.23-3.91h1.01l1.22,3.91c.1.35.21.72.32,1.12s.22.83.33,1.31c.11-.47.22-.9.33-1.3s.22-.78.32-1.13l1.17-3.91h.98l-2.29,7.26h-.96l-1.31-4.06c-.11-.36-.22-.72-.32-1.08s-.21-.74-.31-1.13c-.1.39-.21.76-.31,1.13s-.21.73-.31,1.08l-1.31,4.06h-.96Z"/>
    <path class="cls-4" d="M604.06,408.54c-.67,0-1.25-.16-1.76-.48s-.9-.76-1.19-1.32-.43-1.21-.43-1.95.14-1.4.43-1.96c.29-.57.68-1.01,1.19-1.33s1.09-.48,1.76-.48,1.25.16,1.75.48.91.76,1.19,1.33c.29.56.43,1.22.43,1.96s-.14,1.38-.43,1.95c-.29.56-.68,1-1.19,1.32s-1.09.48-1.75.48ZM604.06,407.75c.52,0,.97-.13,1.33-.4.36-.27.64-.62.83-1.07s.29-.94.29-1.47-.1-1.04-.29-1.48-.47-.81-.83-1.08-.81-.41-1.33-.41-.96.13-1.32.41-.64.63-.83,1.08-.29.94-.29,1.48.09,1.03.28,1.47c.19.45.47.8.83,1.07.36.27.81.4,1.33.4h0Z"/>
    <path class="cls-4" d="M609.38,408.39v-7.26h.9v1.13h.07c.15-.37.42-.67.8-.89s.81-.33,1.28-.33h.48v.88s-.1-.01-.21-.03c-.1-.01-.22-.02-.34-.02-.59,0-1.08.17-1.47.52s-.58.79-.58,1.33v4.66h-.93Z"/>
    <path class="cls-4" d="M616.91,408.54c-.62,0-1.17-.16-1.64-.47-.47-.31-.83-.75-1.1-1.32-.26-.57-.39-1.22-.39-1.98s.13-1.4.4-1.96.63-1,1.1-1.31,1.02-.47,1.64-.47c.46,0,.85.08,1.16.24s.56.35.75.58c.19.23.33.46.43.68h.08v-3.81h.92v9.68h-.9v-1.36h-.1c-.1.23-.25.46-.44.69s-.44.43-.76.59-.7.24-1.16.24v-.02ZM617.04,407.75c.49,0,.91-.13,1.25-.38s.61-.61.79-1.05.27-.96.27-1.54-.09-1.08-.27-1.53-.44-.79-.79-1.04-.76-.38-1.25-.38-.92.13-1.27.39-.6.61-.78,1.06c-.18.44-.27.94-.27,1.5s.09,1.06.27,1.51.44.8.79,1.07.76.4,1.26.4h0Z"/>
  </g>
  <rect class="cls-3" x="495.34" y="397.3" width="12" height="12" rx="1" ry="1"/>
  <rect class="cls-3" x="753.42" y="396.3" width="14" height="14" rx="1" ry="1"/>
  <g>
    <path class="cls-4" d="M776.42,408.39v-9.68h3.32c1.08,0,1.9.27,2.45.82.56.55.83,1.25.83,2.1,0,.65-.16,1.2-.49,1.67-.32.47-.8.8-1.43,1l2.34,4.08h-1.12l-2.21-3.9c-.12,0-.25.01-.38.01h-2.36v3.89h-.97.02ZM777.39,403.67h2.32c.79,0,1.38-.18,1.77-.55s.59-.86.59-1.49-.2-1.14-.59-1.52c-.39-.38-.98-.57-1.78-.57h-2.31v4.13h0Z"/>
    <path class="cls-4" d="M788.03,408.55c-.71,0-1.33-.16-1.86-.48-.52-.32-.93-.76-1.21-1.32-.29-.56-.43-1.21-.43-1.94s.14-1.38.42-1.95.67-1.01,1.18-1.34c.5-.32,1.09-.49,1.75-.49.56,0,1.08.13,1.58.39s.9.66,1.21,1.19.46,1.21.46,2.03v.38h-5.67c.02.83.26,1.49.72,1.98.46.5,1.08.74,1.85.74.53,0,.97-.12,1.31-.35s.58-.51.72-.83l.88.27c-.17.45-.51.85-1.01,1.19s-1.14.51-1.91.51v.02ZM785.47,404.26h4.73c-.05-.71-.28-1.29-.68-1.75-.41-.46-.95-.69-1.63-.69-.46,0-.87.11-1.22.33s-.63.52-.84.89c-.21.37-.33.78-.36,1.22Z"/>
    <path class="cls-4" d="M793.05,408.39v-7.26h.9v1.34c.2-.5.5-.87.9-1.11s.83-.36,1.29-.36c.51,0,.94.14,1.29.42s.59.65.72,1.12c.18-.48.49-.86.92-1.13.43-.27.92-.41,1.48-.41.68,0,1.25.21,1.7.64.45.42.68,1.04.68,1.86v4.89h-.92v-4.86c0-.58-.16-1.01-.49-1.29s-.73-.42-1.21-.42c-.55,0-1,.16-1.34.49s-.51.76-.51,1.3v4.79h-.92v-4.94c0-.5-.15-.9-.46-1.19s-.71-.44-1.19-.44-.95.17-1.33.5-.56.8-.56,1.4v4.67h-.95Z"/>
    <path class="cls-4" d="M808.36,408.55c-.72,0-1.33-.16-1.86-.48-.52-.32-.93-.76-1.21-1.32s-.43-1.21-.43-1.94.14-1.38.42-1.95c.28-.57.67-1.01,1.18-1.34.5-.32,1.09-.49,1.75-.49.56,0,1.08.13,1.58.39s.9.66,1.21,1.19.46,1.21.46,2.03v.38h-5.67c.02.83.26,1.49.72,1.98s1.08.74,1.85.74c.53,0,.97-.12,1.31-.35s.58-.51.72-.83l.88.27c-.17.45-.51.85-1.02,1.19-.5.34-1.14.51-1.91.51l.02.02ZM805.81,404.26h4.73c-.05-.71-.28-1.29-.68-1.75s-.95-.69-1.63-.69c-.46,0-.87.11-1.22.33s-.63.52-.84.89-.33.78-.36,1.22Z"/>
    <path class="cls-4" d="M813.38,408.39v-7.26h.9v1.34c.2-.5.5-.87.9-1.11s.83-.36,1.29-.36c.51,0,.94.14,1.29.42s.59.65.72,1.12c.18-.48.49-.86.92-1.13.43-.27.92-.41,1.48-.41.68,0,1.25.21,1.7.64.45.42.68,1.04.68,1.86v4.89h-.92v-4.86c0-.58-.16-1.01-.49-1.29s-.73-.42-1.21-.42c-.55,0-1,.16-1.34.49s-.51.76-.51,1.3v4.79h-.92v-4.94c0-.5-.15-.9-.46-1.19s-.71-.44-1.19-.44-.95.17-1.33.5-.56.8-.56,1.4v4.67h-.95Z"/>
    <path class="cls-4" d="M828.94,408.55c-.46,0-.85-.08-1.16-.24s-.56-.35-.75-.59-.34-.46-.44-.69h-.1v1.36h-.9v-9.68h.93v3.81h.08c.1-.22.24-.45.43-.68.19-.23.44-.42.75-.58s.7-.24,1.17-.24c.62,0,1.17.16,1.64.47.47.31.84.75,1.1,1.31s.4,1.22.4,1.96-.13,1.41-.39,1.98c-.26.56-.63,1-1.1,1.32-.47.31-1.02.47-1.64.47l-.02.02ZM828.82,407.75c.5,0,.92-.13,1.26-.4s.61-.62.79-1.07.27-.95.27-1.51-.09-1.05-.27-1.5c-.18-.44-.44-.8-.79-1.06s-.77-.39-1.27-.39-.91.12-1.25.38c-.34.25-.61.6-.79,1.04s-.27.95-.27,1.53.09,1.09.27,1.54.45.8.79,1.05c.34.26.76.38,1.25.38h.01Z"/>
    <path class="cls-4" d="M837.12,408.55c-.72,0-1.33-.16-1.86-.48-.52-.32-.93-.76-1.21-1.32s-.43-1.21-.43-1.94.14-1.38.42-1.95c.28-.57.67-1.01,1.18-1.34.5-.32,1.09-.49,1.75-.49.56,0,1.08.13,1.58.39s.9.66,1.21,1.19.46,1.21.46,2.03v.38h-5.67c.02.83.26,1.49.72,1.98s1.08.74,1.85.74c.53,0,.97-.12,1.31-.35s.58-.51.72-.83l.88.27c-.17.45-.51.85-1.02,1.19-.5.34-1.14.51-1.91.51l.02.02ZM834.56,404.26h4.73c-.05-.71-.28-1.29-.68-1.75s-.95-.69-1.63-.69c-.46,0-.87.11-1.22.33s-.63.52-.84.89-.33.78-.36,1.22Z"/>
    <path class="cls-4" d="M842.14,408.39v-7.26h.9v1.13h.07c.15-.37.42-.67.8-.89s.81-.33,1.28-.33h.48v.88s-.1-.01-.21-.03c-.1-.01-.22-.02-.34-.02-.59,0-1.08.17-1.47.52-.38.35-.58.79-.58,1.33v4.66h-.93Z"/>
    <path class="cls-4" d="M851.28,408.39v-9.68h1.38l2.84,6.64c.1.24.22.55.36.93.13.38.26.74.38,1.1.12-.35.25-.71.38-1.08s.26-.69.36-.94l2.82-6.64h1.38v9.68h-.96v-6.14c0-.34,0-.74.01-1.19,0-.45.01-.89.02-1.33-.16.48-.33.94-.51,1.4-.18.45-.33.83-.45,1.12l-2.65,6.14h-.85l-2.67-6.14c-.12-.29-.27-.65-.44-1.1s-.34-.92-.53-1.41c0,.41.02.84.02,1.3s.01.86.01,1.21v6.14h-.93.03Z"/>
    <path class="cls-4" d="M866.81,408.55c-.72,0-1.33-.16-1.86-.48-.52-.32-.93-.76-1.21-1.32s-.43-1.21-.43-1.94.14-1.38.42-1.95c.28-.57.67-1.01,1.18-1.34.5-.32,1.09-.49,1.75-.49.56,0,1.08.13,1.58.39s.9.66,1.21,1.19.46,1.21.46,2.03v.38h-5.67c.02.83.26,1.49.72,1.98s1.08.74,1.85.74c.53,0,.97-.12,1.31-.35s.58-.51.72-.83l.88.27c-.17.45-.51.85-1.02,1.19-.5.34-1.14.51-1.91.51l.02.02ZM864.25,404.26h4.73c-.05-.71-.28-1.29-.68-1.75s-.95-.69-1.63-.69c-.46,0-.87.11-1.22.33s-.63.52-.84.89-.33.78-.36,1.22Z"/>
  </g>
  <g>
    <path class="cls-11" d="M561.5,200.56h2.11l1.89,7.13c.28,1.09.53,2.3.75,3.5.24-1.2.49-2.4.79-3.5l1.94-7.13h2.2l1.92,7.13c.3,1.09.54,2.27.79,3.45.23-1.18.47-2.36.75-3.45l1.89-7.13h2.13l-3.57,12.44h-2.31l-2.08-7.37c-.23-.83-.43-1.78-.62-2.85-.19,1.02-.37,1.94-.62,2.85l-2.07,7.37h-2.32l-3.55-12.44h-.02Z"/>
    <path class="cls-11" d="M579.05,208.4c0-2.87,1.78-4.85,4.53-4.85,2.24,0,4.39,1.33,4.39,4.69v.65h-6.97c.07,1.8,1.16,2.78,2.77,2.78,1.08,0,1.89-.45,2.23-1.32l1.82.41c-.47,1.45-1.97,2.43-4.07,2.43-2.9,0-4.69-1.89-4.69-4.79h-.01ZM586.04,207.53c-.14-1.47-.98-2.45-2.46-2.45s-2.48,1.11-2.58,2.45h5.04Z"/>
    <path class="cls-11" d="M592.01,213h-1.93v-12.44h1.93v12.44Z"/>
    <path class="cls-11" d="M594.16,208.38c0-2.9,1.82-4.83,4.59-4.83,2.04,0,3.63,1.03,4.11,2.75l-1.84.42c-.26-.96-1.06-1.62-2.27-1.62-1.78,0-2.63,1.48-2.63,3.28s.85,3.26,2.63,3.26c1.22,0,2.04-.68,2.3-1.69l1.83.42c-.47,1.76-2.07,2.82-4.14,2.82-2.77,0-4.59-1.93-4.59-4.81h.01Z"/>
    <path class="cls-11" d="M604.54,208.38c0-2.9,1.82-4.83,4.59-4.83s4.6,1.93,4.6,4.83-1.83,4.81-4.6,4.81-4.59-1.93-4.59-4.81ZM611.77,208.38c0-1.79-.84-3.28-2.64-3.28s-2.62,1.49-2.62,3.28.84,3.26,2.62,3.26,2.64-1.49,2.64-3.26Z"/>
    <path class="cls-11" d="M615.87,203.67h1.84l.04,1.74c.5-1.29,1.6-1.9,2.77-1.9,1.28,0,2.13.73,2.51,1.96.5-1.26,1.71-1.96,3.11-1.96,1.74,0,3.11,1.08,3.11,3.2v6.29h-1.93v-6.11c0-1.24-.84-1.77-1.85-1.77-1.22,0-1.96.79-1.96,1.9v5.98h-1.91v-6.23c0-.99-.76-1.65-1.79-1.65s-2.01.72-2.01,2.08v5.8h-1.93v-9.33h0Z"/>
    <path class="cls-11" d="M631.4,208.4c0-2.87,1.78-4.85,4.53-4.85,2.24,0,4.39,1.33,4.39,4.69v.65h-6.97c.07,1.8,1.16,2.78,2.77,2.78,1.08,0,1.89-.45,2.23-1.32l1.82.41c-.47,1.45-1.97,2.43-4.07,2.43-2.9,0-4.69-1.89-4.69-4.79h-.01ZM638.4,207.53c-.14-1.47-.98-2.45-2.46-2.45s-2.48,1.11-2.58,2.45h5.04Z"/>
    <path class="cls-11" d="M651.43,205.16h-1.96v5.32c0,.75.31,1.08,1.07,1.08.2,0,.58-.05.82-.1l.34,1.47c-.41.13-.91.19-1.35.19-1.78,0-2.81-.91-2.81-2.5v-5.47h-1.43v-1.49h1.43v-2.22h1.93v2.22h1.96v1.49h0Z"/>
    <path class="cls-11" d="M652.73,208.38c0-2.9,1.82-4.83,4.59-4.83s4.6,1.93,4.6,4.83-1.83,4.81-4.6,4.81-4.59-1.93-4.59-4.81ZM659.95,208.38c0-1.79-.84-3.28-2.64-3.28s-2.62,1.49-2.62,3.28.84,3.26,2.62,3.26,2.64-1.49,2.64-3.26Z"/>
    <path class="cls-11" d="M669,200.56h2v5.26h6.49v-5.26h2.01v12.44h-2.01v-5.54h-6.49v5.54h-2v-12.44Z"/>
    <path class="cls-11" d="M682.41,200.56h4.69c3.03,0,4.54,1.61,4.54,3.91,0,1.67-.8,2.94-2.39,3.51l2.88,5.02h-2.28l-2.65-4.7h-2.79v4.7h-2v-12.44h0ZM686.89,206.67c1.92,0,2.72-.81,2.72-2.2s-.8-2.28-2.73-2.28h-2.46v4.48h2.48,0Z"/>
    <path class="cls-11" d="M702.52,200.56h2.46l4.75,12.44h-2.17l-1.2-3.28h-5.15l-1.17,3.28h-2.17l4.66-12.44h-.01ZM705.77,208.13l-.76-2.05c-.35-.99-.75-2.26-1.27-4.02-.51,1.78-.91,3.07-1.24,4.02l-.73,2.05h4Z"/>
    <path class="cls-11" d="M710.88,208.36c0-3.04,1.75-4.81,4.11-4.81,1.83,0,2.5,1.06,2.83,1.64h.11v-4.62h1.93v12.44h-1.88v-1.46h-.16c-.34.59-1.05,1.64-2.83,1.64-2.39,0-4.11-1.81-4.11-4.82h0ZM717.97,208.34c0-1.94-.89-3.23-2.55-3.23s-2.56,1.39-2.56,3.23.88,3.28,2.56,3.28,2.55-1.34,2.55-3.28Z"/>
    <path class="cls-11" d="M722.47,203.67h1.84l.04,1.74c.5-1.29,1.6-1.9,2.77-1.9,1.28,0,2.13.73,2.51,1.96.5-1.26,1.71-1.96,3.11-1.96,1.74,0,3.11,1.08,3.11,3.2v6.29h-1.93v-6.11c0-1.24-.84-1.77-1.85-1.77-1.22,0-1.96.79-1.96,1.9v5.98h-1.91v-6.23c0-.99-.76-1.65-1.79-1.65s-2.01.72-2.01,2.08v5.8h-1.93v-9.33h0Z"/>
    <path class="cls-11" d="M738.21,201.16c0-.61.55-1.09,1.22-1.09s1.22.48,1.22,1.09-.55,1.08-1.22,1.08-1.22-.48-1.22-1.08ZM738.45,203.67h1.93v9.33h-1.93v-9.33Z"/>
    <path class="cls-11" d="M744.92,213h-1.93v-9.33h1.85v1.79c.62-1.32,1.65-1.91,3.04-1.91,2,0,3.34,1.22,3.34,3.52v5.93h-1.93v-5.7c0-1.34-.79-2.15-2.07-2.15s-2.29.84-2.29,2.32v5.53h-.01Z"/>
    <path class="cls-11" d="M758.77,200.56h4.69c3.03,0,4.54,1.74,4.54,4.04s-1.51,4.04-4.55,4.04h-2.67v4.36h-2v-12.44h-.01ZM763.25,207.03c1.92,0,2.72-1.03,2.72-2.43s-.79-2.41-2.73-2.41h-2.46v4.84h2.48,0Z"/>
    <path class="cls-11" d="M769.51,210.36c0-2.12,1.92-2.59,3.78-2.79,1.73-.19,2.48-.18,2.48-.84v-.05c0-1.04-.65-1.64-1.88-1.64s-2,.64-2.28,1.28l-1.82-.45c.67-1.67,2.32-2.32,4.07-2.32,1.58,0,3.84.56,3.84,3.25v6.19h-1.87v-1.28h-.1c-.38.73-1.31,1.49-2.9,1.49-1.87,0-3.32-1.01-3.32-2.85h0ZM775.78,209.64v-1.19c-.29.27-1.78.42-2.38.49-1.09.14-1.99.49-1.99,1.45,0,.88.77,1.34,1.85,1.34,1.57,0,2.51-1,2.51-2.1h.01Z"/>
    <path class="cls-11" d="M782.24,213h-1.93v-9.33h1.85v1.79c.62-1.32,1.65-1.91,3.04-1.91,2,0,3.34,1.22,3.34,3.52v5.93h-1.93v-5.7c0-1.34-.79-2.15-2.07-2.15s-2.29.84-2.29,2.32v5.53h-.01Z"/>
    <path class="cls-11" d="M790.68,208.4c0-2.87,1.78-4.85,4.53-4.85,2.24,0,4.39,1.33,4.39,4.69v.65h-6.97c.07,1.8,1.16,2.78,2.77,2.78,1.08,0,1.89-.45,2.23-1.32l1.82.41c-.47,1.45-1.97,2.43-4.07,2.43-2.9,0-4.69-1.89-4.69-4.79h-.01ZM797.68,207.53c-.14-1.47-.98-2.45-2.46-2.45s-2.48,1.11-2.58,2.45h5.04Z"/>
    <path class="cls-11" d="M803.64,213h-1.93v-12.44h1.93v12.44Z"/>
  </g>
  <path class="cls-11" d="M558,189.7c80.08-.61,169.92-.62,250,0-80.08.62-169.92.61-250,0h0Z"/>
  <g>
    <path class="cls-12" d="M602.61,133.49h8.28v39.01h-8.28v-39.01Z"/>
    <path class="cls-5" d="M619.76,133.49h20.1c12.59,0,18.92,5.02,18.92,15.13v8.75c0,10.11-6.33,15.13-18.92,15.13h-20.1v-39.01ZM638.67,167.48c7.86,0,11.82-3.13,11.82-9.46v-10.05c0-6.32-3.96-9.46-11.82-9.46h-10.64v28.96h10.64Z"/>
    <path class="cls-7" d="M667.04,133.49h10.64l14.78,30.97,14.78-30.97h10.64v39.01h-8.28v-27.25l-13,27.25h-8.28l-13-27.25v27.25h-8.28v-39.01Z"/>
    <path class="cls-6" d="M726.15,167.48h26.6c1.6,0,2.36-.65,2.36-1.89v-9.52c0-1.24-.77-1.89-2.36-1.89h-17.73c-5.91,0-8.87-2.36-8.87-7.09v-6.5c0-4.73,2.96-7.09,8.87-7.09h25.42v5.02h-23.64c-1.6,0-2.36.65-2.36,1.89v6.86c0,1.24.77,1.89,2.36,1.89h17.73c5.91,0,8.87,2.36,8.87,7.09v9.16c0,4.73-2.96,7.09-8.87,7.09h-28.37v-5.02Z"/>
  </g>
</svg>